<?xml version="1.0" encoding="UTF-8"?>
<svg id="Layer_1" xmlns="http://www.w3.org/2000/svg" version="1.1" viewBox="0 0 900 235">
  <!-- Generator: Adobe Illustrator 29.2.1, SVG Export Plug-In . SVG Version: 2.1.0 Build 116)  -->
  <defs>
    <style>
      .st0 {
        font-size: 36px;
      }

      .st0, .st1, .st2 {
        font-family: Impact, Impact;
      }

      .st1 {
        font-size: 14px;
      }

      .st3 {
        fill: #ff2c2c;
      }

      .st4 {
        fill: none;
        stroke: #fbb03b;
        stroke-width: 3px;
      }

      .st4, .st5 {
        stroke-miterlimit: 10;
      }

      .st5 {
        stroke: #000;
      }

      .st5, .st6, .st2 {
        fill: #ffd600;
      }

      .st7 {
        fill: #fbb03b;
      }

      .st2 {
        font-size: 21px;
      }
    </style>
  </defs>
  <rect class="st5" x="266.19" y="59.38" width="97.04" height="97.04" rx="19.23" ry="19.23"/>
  <rect class="st5" x="363.23" y="59.38" width="97.04" height="97.04" rx="19.23" ry="19.23"/>
  <rect class="st5" x="460.27" y="59.38" width="97.04" height="97.04" rx="19.23" ry="19.23"/>
  <rect class="st5" x="557.31" y="59.38" width="97.04" height="97.04" rx="19.23" ry="19.23"/>
  <rect class="st5" x="654.35" y="59.38" width="97.04" height="97.04" rx="19.23" ry="19.23"/>
  <text class="st0" transform="translate(307.85 119.8)"><tspan x="0" y="0">1</tspan></text>
  <text class="st0" transform="translate(395.86 119.8)"><tspan x="0" y="0">12</tspan></text>
  <text class="st0" transform="translate(499.25 119.8)"><tspan x="0" y="0">3</tspan></text>
  <text class="st0" transform="translate(586.34 119.8)"><tspan x="0" y="0">99</tspan></text>
  <text class="st0" transform="translate(684.34 119.8)"><tspan x="0" y="0">43</tspan></text>
  <text class="st2" transform="translate(313.64 46.65)"><tspan x="0" y="0">0</tspan></text>
  <text class="st2" transform="translate(410.03 46.65)"><tspan x="0" y="0">1</tspan></text>
  <text class="st2" transform="translate(503.52 46.65)"><tspan x="0" y="0">2</tspan></text>
  <text class="st2" transform="translate(600.94 46.65)"><tspan x="0" y="0">3</tspan></text>
  <text class="st2" transform="translate(697.63 46.65)"><tspan x="0" y="0">4</tspan></text>
  <text class="st2" transform="translate(118.49 49.69)"><tspan x="0" y="0">INDEX</tspan></text>
  <g>
    <line class="st4" x1="187.09" y1="40.95" x2="249.51" y2="40.95"/>
    <polygon class="st7" points="239.57 53.21 237.53 51.02 248.36 40.95 237.53 30.88 239.57 28.68 252.77 40.95 239.57 53.21"/>
  </g>
  <g>
    <path class="st6" d="M122.77,155.4l1.65,11.07h-2.94l-.15-1.99h-1.03l-.17,1.99h-2.98l1.47-11.07h4.16ZM121.24,162.52c-.15-1.25-.29-2.8-.44-4.65-.29,2.12-.48,3.67-.55,4.65h.99Z"/>
    <path class="st6" d="M124.9,155.4h2.15c1.39,0,2.33.06,2.82.19.49.13.86.34,1.12.63.26.29.41.62.48.97.06.36.1,1.06.1,2.11v3.88c0,.99-.05,1.66-.14,1.99s-.26.6-.49.79c-.23.19-.52.32-.86.4s-.86.11-1.54.11h-3.63v-11.07ZM127.78,157.29v7.28c.41,0,.67-.08.77-.25.1-.17.14-.62.14-1.36v-4.3c0-.5-.02-.82-.05-.96-.03-.14-.1-.25-.22-.31-.11-.07-.33-.1-.64-.1Z"/>
    <path class="st6" d="M132.64,155.4h2.15c1.39,0,2.33.06,2.82.19.49.13.86.34,1.12.63.26.29.41.62.48.97.06.36.1,1.06.1,2.11v3.88c0,.99-.05,1.66-.14,1.99s-.26.6-.49.79c-.23.19-.52.32-.86.4s-.86.11-1.54.11h-3.63v-11.07ZM135.52,157.29v7.28c.41,0,.67-.08.77-.25.1-.17.14-.62.14-1.36v-4.3c0-.5-.02-.82-.05-.96-.03-.14-.1-.25-.22-.31-.11-.07-.33-.1-.64-.1Z"/>
    <path class="st6" d="M140.38,155.4h2.04c1.36,0,2.28.05,2.76.16.48.1.87.37,1.18.8s.45,1.12.45,2.06c0,.86-.11,1.44-.32,1.74-.21.3-.64.47-1.26.53.57.14.95.33,1.15.57.2.24.32.45.37.65s.07.74.07,1.64v2.92h-2.67v-3.68c0-.59-.05-.96-.14-1.1-.09-.14-.34-.21-.73-.21v4.99h-2.88v-11.07ZM143.26,157.29v2.46c.32,0,.55-.04.68-.13s.19-.38.19-.86v-.61c0-.35-.06-.58-.19-.69s-.35-.16-.69-.16Z"/>
    <path class="st6" d="M147.92,155.4h4.8v2.21h-1.92v2.1h1.8v2.11h-1.8v2.43h2.11v2.21h-4.99v-11.07Z"/>
    <path class="st6" d="M159.84,158.75h-2.67v-.82c0-.38-.03-.63-.1-.73-.07-.11-.18-.16-.34-.16-.17,0-.3.07-.39.21s-.13.36-.13.64c0,.37.05.65.15.83.1.19.37.41.81.68,1.28.76,2.09,1.38,2.42,1.87.33.49.5,1.27.5,2.36,0,.79-.09,1.37-.28,1.74-.18.37-.54.69-1.07.94s-1.14.38-1.85.38c-.77,0-1.43-.15-1.97-.44-.54-.29-.9-.66-1.07-1.11s-.25-1.09-.25-1.92v-.72h2.67v1.35c0,.41.04.68.11.8.08.12.21.18.4.18s.33-.08.43-.23.14-.37.14-.67c0-.65-.09-1.08-.27-1.28-.18-.2-.63-.54-1.35-1-.72-.47-1.19-.82-1.42-1.03-.23-.21-.42-.51-.58-.89-.15-.38-.23-.86-.23-1.45,0-.85.11-1.47.32-1.86.22-.39.57-.7,1.05-.92.48-.22,1.07-.33,1.75-.33.75,0,1.38.12,1.91.36.53.24.88.55,1.05.91.17.37.26.99.26,1.87v.44Z"/>
    <path class="st6" d="M167.08,158.75h-2.67v-.82c0-.38-.03-.63-.1-.73-.07-.11-.18-.16-.34-.16-.17,0-.3.07-.39.21s-.13.36-.13.64c0,.37.05.65.15.83.1.19.37.41.81.68,1.28.76,2.09,1.38,2.42,1.87.33.49.5,1.27.5,2.36,0,.79-.09,1.37-.28,1.74-.18.37-.54.69-1.07.94s-1.14.38-1.85.38c-.77,0-1.43-.15-1.97-.44-.54-.29-.9-.66-1.07-1.11s-.25-1.09-.25-1.92v-.72h2.67v1.35c0,.41.04.68.11.8.08.12.21.18.4.18s.33-.08.43-.23.14-.37.14-.67c0-.65-.09-1.08-.27-1.28-.18-.2-.63-.54-1.35-1-.72-.47-1.19-.82-1.42-1.03-.23-.21-.42-.51-.58-.89-.15-.38-.23-.86-.23-1.45,0-.85.11-1.47.32-1.86.22-.39.57-.7,1.05-.92.48-.22,1.07-.33,1.75-.33.75,0,1.38.12,1.91.36.53.24.88.55,1.05.91.17.37.26.99.26,1.87v.44Z"/>
    <path class="st6" d="M128.5,172.2v11.07h-2.88v-11.07h2.88Z"/>
    <path class="st6" d="M132.38,174.2l-.05.84c.2-.33.45-.58.73-.75.29-.17.62-.25,1-.25.47,0,.86.11,1.16.33.3.22.49.5.58.84.09.34.13.91.13,1.7v6.36h-2.76v-6.28c0-.62-.02-1-.06-1.14s-.15-.21-.34-.21-.32.08-.37.24-.08.58-.08,1.26v6.13h-2.76v-9.07h2.81Z"/>
    <path class="st6" d="M145.24,172.2v2.21h-1.71v8.85h-2.88v-8.85h-1.7v-2.21h6.29Z"/>
    <path class="st6" d="M148.58,172.2v2.49c.24-.22.49-.38.77-.49.28-.11.57-.17.89-.17.48,0,.89.12,1.23.37s.55.53.62.85.11.91.11,1.76v6.25h-2.76v-6.38c0-.53-.03-.87-.08-1.02s-.17-.23-.35-.23c-.17,0-.28.08-.34.23-.06.16-.09.46-.09.92v6.47h-2.76v-11.07h2.76Z"/>
    <path class="st6" d="M159.41,178.89h-3.58v1.96c0,.41.03.67.09.79.06.12.17.18.34.18.21,0,.35-.08.42-.24s.11-.46.11-.91v-1.2h2.62v.67c0,.56-.04.99-.11,1.29s-.24.62-.5.96-.59.6-.99.77-.9.26-1.5.26-1.1-.08-1.54-.25c-.45-.17-.79-.4-1.04-.69s-.42-.62-.52-.97c-.1-.35-.14-.87-.14-1.54v-2.65c0-.79.11-1.42.32-1.88s.56-.81,1.05-1.05c.49-.24,1.05-.37,1.68-.37.77,0,1.41.15,1.92.44s.86.68,1.06,1.17.3,1.17.3,2.05v1.2ZM156.64,177.42v-.66c0-.47-.02-.77-.08-.91s-.15-.21-.31-.21c-.19,0-.31.06-.36.17s-.07.43-.07.94v.66h.81Z"/>
    <path class="st6" d="M128.54,189v11.07h-2.52v-7.47s-1,7.47-1,7.47h-1.78l-1.06-7.3v7.3h-2.52v-11.07h3.72c.11.67.22,1.45.34,2.35l.41,2.81.66-5.17h3.74Z"/>
    <path class="st6" d="M135.87,195.69h-3.58v1.96c0,.41.03.67.09.79.06.12.17.18.34.18.21,0,.35-.08.42-.24s.11-.46.11-.91v-1.2h2.62v.67c0,.56-.04.99-.11,1.29s-.24.62-.5.96-.59.6-.99.77-.9.26-1.5.26-1.1-.08-1.54-.25c-.45-.17-.79-.4-1.04-.69s-.42-.62-.52-.97c-.1-.35-.14-.87-.14-1.54v-2.65c0-.79.11-1.42.32-1.88s.56-.81,1.05-1.05c.49-.24,1.05-.37,1.68-.37.77,0,1.41.15,1.92.44s.86.68,1.06,1.17.3,1.17.3,2.05v1.2ZM133.1,194.22v-.66c0-.47-.02-.77-.08-.91s-.15-.21-.31-.21c-.19,0-.31.06-.36.17s-.07.43-.07.94v.66h.81Z"/>
    <path class="st6" d="M139.5,191l-.05.86c.21-.34.47-.6.77-.77.3-.17.63-.26,1.01-.26.74,0,1.32.34,1.74,1.03.23-.34.49-.6.79-.77.29-.17.62-.26.97-.26.47,0,.86.11,1.17.34.31.23.5.51.59.84.09.33.13.87.13,1.61v6.45h-2.68v-5.91c0-.77-.03-1.25-.08-1.44s-.17-.28-.37-.28-.32.09-.38.27c-.06.18-.09.66-.09,1.44v5.91h-2.68v-5.76c0-.89-.02-1.42-.06-1.6s-.16-.27-.36-.27c-.12,0-.23.05-.31.14-.09.09-.13.21-.14.34,0,.13-.01.42-.01.86v6.29h-2.68v-9.07h2.73Z"/>
    <path class="st6" d="M153.82,194.18v2.22c0,.82-.04,1.41-.12,1.79-.08.38-.26.74-.53,1.07-.27.33-.61.57-1.04.73s-.91.24-1.45.24c-.61,0-1.13-.07-1.55-.2-.42-.13-.75-.34-.99-.61-.23-.27-.4-.6-.5-.98-.1-.39-.15-.96-.15-1.73v-2.32c0-.84.09-1.5.27-1.98.18-.47.51-.85.98-1.14s1.08-.43,1.82-.43c.62,0,1.15.09,1.6.28s.79.42,1.03.72c.24.3.41.6.5.92s.13.79.13,1.44ZM151.05,193.5c0-.46-.02-.76-.08-.88-.05-.12-.16-.18-.32-.18s-.27.06-.33.18c-.05.12-.08.41-.08.88v4.09c0,.43.03.71.08.84s.16.19.32.19.27-.06.32-.18c.05-.12.08-.37.08-.77v-4.18Z"/>
    <path class="st6" d="M157.49,191l-.11,1.19c.4-.85.98-1.31,1.74-1.36v3.19c-.51,0-.88.07-1.11.21s-.38.33-.44.57c-.05.24-.08.81-.08,1.68v3.58h-2.76v-9.07h2.76Z"/>
    <path class="st6" d="M165.77,191l-.79,6.56c-.12,1.04-.23,1.75-.31,2.13-.08.38-.22.69-.42.94s-.47.43-.82.54-.91.17-1.67.17h-1.67v-1.45c.43,0,.71-.02.83-.06.12-.04.19-.14.19-.29,0-.07-.06-.39-.17-.95l-1.51-7.59h2.51l.91,6.12.44-6.12h2.5Z"/>
  </g>
  <g>
    <line class="st4" x1="187.09" y1="174.85" x2="249.51" y2="174.85"/>
    <polygon class="st7" points="239.57 187.12 237.53 184.92 248.36 174.85 237.53 164.78 239.57 162.58 252.77 174.85 239.57 187.12"/>
  </g>
  <text class="st2" transform="translate(294.05 185.94)"><tspan x="0" y="0">0X01</tspan></text>
  <text class="st2" transform="translate(390.16 185.94)"><tspan x="0" y="0">0X02</tspan></text>
  <text class="st2" transform="translate(486.01 186.25)"><tspan x="0" y="0">0X03</tspan></text>
  <text class="st2" transform="translate(584.26 186.25)"><tspan x="0" y="0">0X04</tspan></text>
  <text class="st2" transform="translate(680.92 185.94)"><tspan x="0" y="0">0X05</tspan></text>
  <text class="st1" transform="translate(349.78 212.39)"><tspan class="st3" x="0" y="0">Data is saved one after another in the memory ( </tspan><tspan class="st6" x="271.37" y="0">It’s Contiguous </tspan><tspan class="st3" x="359.52" y="0">)</tspan></text>
</svg>