<?xml version="1.0" encoding="UTF-8"?>
<svg id="Layer_1" xmlns="http://www.w3.org/2000/svg" version="1.1" viewBox="0 0 900 470">
  <!-- Generator: Adobe Illustrator 29.2.1, SVG Export Plug-In . SVG Version: 2.1.0 Build 116)  -->
  <defs>
    <style>
      .st0 {
        font-size: 26.96px;
      }

      .st0, .st1, .st2, .st3 {
        font-family: Impact, Impact;
      }

      .st4, .st2 {
        fill: #ff2c2c;
      }

      .st1 {
        font-size: 15.73px;
      }

      .st1, .st5, .st6, .st3 {
        fill: #ffd600;
      }

      .st5 {
        stroke: #000;
      }

      .st5, .st7 {
        stroke-miterlimit: 10;
      }

      .st7 {
        fill: none;
        stroke: #ffd600;
        stroke-width: 3px;
      }

      .st2 {
        font-size: 14px;
      }

      .st3 {
        font-size: 21px;
      }
    </style>
  </defs>
  <g>
    <path class="st4" d="M289.06,12.58v11.07h-2.88v-11.07h2.88Z"/>
    <path class="st4" d="M292.95,14.57l-.05.84c.2-.33.45-.58.73-.75s.62-.25,1-.25c.47,0,.86.11,1.16.33s.49.5.58.84.13.91.13,1.7v6.36h-2.76v-6.28c0-.62-.02-1-.06-1.14s-.15-.21-.34-.21-.32.08-.37.24-.08.58-.08,1.26v6.13h-2.76v-9.07h2.81Z"/>
    <path class="st4" d="M306.21,12.58v11.07h-2.76v-.66c-.26.27-.54.48-.83.62-.29.14-.6.21-.92.21-.43,0-.8-.11-1.11-.34s-.52-.49-.6-.78-.13-.78-.13-1.45v-4.25c0-.7.04-1.19.13-1.48s.29-.55.61-.77.7-.33,1.14-.33c.34,0,.66.06.94.19s.54.31.78.56v-2.57h2.76ZM303.45,16.86c0-.33-.03-.56-.09-.67s-.17-.17-.34-.17-.27.05-.33.15-.09.33-.09.69v4.44c0,.37.03.61.08.73s.16.17.31.17c.18,0,.3-.06.36-.19s.09-.45.09-.95v-4.2Z"/>
    <path class="st4" d="M312.98,14.57l-.79,6.56c-.12,1.04-.23,1.75-.31,2.13-.08.38-.22.69-.42.94s-.47.43-.82.54-.91.17-1.67.17h-1.67v-1.45c.43,0,.71-.02.83-.06.12-.04.19-.14.19-.29,0-.07-.06-.39-.17-.95l-1.51-7.59h2.51l.91,6.12.44-6.12h2.5Z"/>
    <path class="st4" d="M316.29,14.57l-.05.84c.2-.33.45-.58.73-.75s.62-.25,1-.25c.47,0,.86.11,1.16.33s.49.5.58.84.13.91.13,1.7v6.36h-2.76v-6.28c0-.62-.02-1-.06-1.14s-.15-.21-.34-.21-.32.08-.37.24-.08.58-.08,1.26v6.13h-2.76v-9.07h2.81Z"/>
    <path class="st4" d="M323.27,18.09h-2.59v-.61c0-.7.08-1.24.24-1.62s.49-.72.97-1.01,1.12-.44,1.9-.44c.93,0,1.64.17,2.11.5s.76.74.85,1.22.14,1.47.14,2.97v4.55h-2.69v-.81c-.17.32-.39.57-.65.73s-.58.24-.95.24c-.48,0-.93-.14-1.33-.41s-.6-.86-.6-1.78v-.75c0-.68.11-1.14.32-1.39s.75-.53,1.59-.86c.91-.36,1.39-.59,1.46-.72s.1-.37.1-.75c0-.47-.04-.78-.11-.93s-.19-.22-.35-.22c-.19,0-.3.06-.35.18s-.07.43-.07.94v.95ZM324.14,19.33c-.44.32-.7.59-.77.81s-.11.53-.11.94c0,.47.03.77.09.91s.18.21.37.21.29-.05.34-.16.08-.39.08-.84v-1.87Z"/>
    <path class="st4" d="M330.58,14.57l-.05.86c.21-.34.47-.6.77-.77s.63-.26,1.01-.26c.74,0,1.32.34,1.74,1.03.23-.34.49-.6.79-.77s.62-.26.97-.26c.47,0,.86.11,1.17.34s.5.51.59.84.13.87.13,1.61v6.45h-2.68v-5.91c0-.77-.03-1.25-.08-1.44s-.17-.28-.37-.28-.32.09-.38.27-.09.66-.09,1.44v5.91h-2.68v-5.76c0-.89-.02-1.42-.06-1.6s-.16-.27-.36-.27c-.12,0-.23.05-.31.14s-.13.21-.14.34-.01.42-.01.86v6.29h-2.68v-9.07h2.73Z"/>
    <path class="st4" d="M341.49,12.58v1.44h-2.84v-1.44h2.84ZM341.49,14.57v9.07h-2.84v-9.07h2.84Z"/>
    <path class="st4" d="M348.59,18h-2.6v-1.05c0-.36-.03-.61-.09-.74s-.17-.19-.33-.19-.27.06-.32.17-.08.37-.08.77v4.28c0,.32.04.57.12.73s.2.24.36.24c.19,0,.31-.08.38-.25s.1-.49.1-.96v-1.08h2.46c0,.72-.03,1.27-.08,1.63s-.2.73-.46,1.11-.59.67-1.01.86-.93.29-1.54.29c-.78,0-1.4-.13-1.85-.4s-.78-.64-.97-1.12-.28-1.16-.28-2.05v-2.58c0-.77.08-1.35.23-1.74s.49-.74.99-1.05,1.12-.46,1.85-.46,1.34.15,1.85.46.85.69,1.02,1.16.25,1.12.25,1.98Z"/>
    <path class="st4" d="M354.34,18.09h-2.59v-.61c0-.7.08-1.24.24-1.62s.49-.72.97-1.01,1.12-.44,1.9-.44c.93,0,1.64.17,2.11.5s.76.74.85,1.22.14,1.47.14,2.97v4.55h-2.69v-.81c-.17.32-.39.57-.65.73s-.58.24-.95.24c-.48,0-.93-.14-1.33-.41s-.6-.86-.6-1.78v-.75c0-.68.11-1.14.32-1.39s.75-.53,1.59-.86c.91-.36,1.39-.59,1.46-.72s.1-.37.1-.75c0-.47-.04-.78-.11-.93s-.19-.22-.35-.22c-.19,0-.3.06-.35.18s-.07.43-.07.94v.95ZM355.22,19.33c-.44.32-.7.59-.77.81s-.11.53-.11.94c0,.47.03.77.09.91s.18.21.37.21.29-.05.34-.16.08-.39.08-.84v-1.87Z"/>
    <path class="st4" d="M361.69,14.57l-.11,1.19c.4-.85.98-1.31,1.74-1.36v3.19c-.51,0-.88.07-1.11.21s-.38.33-.44.57-.08.81-.08,1.69v3.58h-2.76v-9.07h2.76Z"/>
    <path class="st4" d="M366.7,14.57l-.11,1.19c.4-.85.98-1.31,1.74-1.36v3.19c-.51,0-.88.07-1.11.21s-.38.33-.44.57-.08.81-.08,1.69v3.58h-2.76v-9.07h2.76Z"/>
    <path class="st4" d="M371.42,18.09h-2.59v-.61c0-.7.08-1.24.24-1.62s.49-.72.97-1.01,1.12-.44,1.9-.44c.93,0,1.64.17,2.11.5s.76.74.85,1.22.14,1.47.14,2.97v4.55h-2.69v-.81c-.17.32-.39.57-.65.73s-.58.24-.95.24c-.48,0-.93-.14-1.33-.41s-.6-.86-.6-1.78v-.75c0-.68.11-1.14.32-1.39s.75-.53,1.59-.86c.91-.36,1.39-.59,1.46-.72s.1-.37.1-.75c0-.47-.04-.78-.11-.93s-.19-.22-.35-.22c-.19,0-.3.06-.35.18s-.07.43-.07.94v.95ZM372.29,19.33c-.44.32-.7.59-.77.81s-.11.53-.11.94c0,.47.03.77.09.91s.18.21.37.21.29-.05.34-.16.08-.39.08-.84v-1.87Z"/>
    <path class="st4" d="M381.79,14.57l-.79,6.56c-.12,1.04-.23,1.75-.31,2.13-.08.38-.22.69-.42.94s-.47.43-.82.54-.91.17-1.67.17h-1.67v-1.45c.43,0,.71-.02.83-.06.12-.04.19-.14.19-.29,0-.07-.06-.39-.17-.95l-1.51-7.59h2.51l.91,6.12.44-6.12h2.5Z"/>
    <path class="st4" d="M387.92,17.47h-2.45v-.49c0-.42-.02-.68-.07-.8s-.17-.17-.36-.17c-.15,0-.27.05-.35.15s-.12.26-.12.46c0,.28.02.48.06.61s.15.27.35.43.59.38,1.19.68c.8.39,1.33.76,1.58,1.11s.38.85.38,1.51c0,.74-.1,1.3-.29,1.67s-.51.67-.96.87-.99.3-1.62.3c-.7,0-1.3-.11-1.8-.33s-.84-.52-1.03-.89-.28-.94-.28-1.7v-.44h2.45v.57c0,.49.03.8.09.95s.18.22.37.22c.2,0,.33-.05.41-.15s.12-.3.12-.62c0-.43-.05-.7-.15-.81-.1-.11-.64-.43-1.61-.97-.81-.46-1.31-.87-1.48-1.24s-.27-.81-.27-1.32c0-.72.1-1.26.29-1.6s.52-.61.97-.8.99-.28,1.6-.28,1.11.08,1.53.23.75.35.97.6.36.48.41.7.07.55.07,1v.53Z"/>
    <path class="st4" d="M400.27,14.57l-1.1,9.07h-3c-.16-1.11-.35-2.57-.57-4.38-.07.8-.18,1.6-.31,2.41l-.3,1.97h-3l-1.17-9.07h2.38c.02.24.22,1.97.6,5.2.03-.33.24-2.06.62-5.2h2.29l.56,5.2c.09-1.52.3-3.25.63-5.2h2.38Z"/>
    <path class="st4" d="M403.47,12.58v2.49c.24-.22.49-.38.77-.49s.57-.16.89-.16c.48,0,.89.12,1.23.37s.55.53.62.85.11.91.11,1.76v6.25h-2.76v-6.38c0-.53-.03-.87-.08-1.02s-.17-.23-.35-.23c-.17,0-.28.08-.34.23s-.09.46-.09.92v6.47h-2.76v-11.07h2.76Z"/>
    <path class="st4" d="M414.3,19.27h-3.58v1.96c0,.41.03.67.09.79s.17.18.34.18c.21,0,.35-.08.42-.24s.11-.46.11-.91v-1.2h2.62v.67c0,.56-.04.99-.11,1.29s-.24.62-.5.96-.59.6-.99.77-.9.26-1.5.26-1.1-.08-1.54-.25-.79-.4-1.04-.69-.42-.62-.52-.97-.14-.87-.14-1.54v-2.65c0-.79.11-1.42.32-1.88s.56-.81,1.05-1.05,1.05-.37,1.68-.37c.77,0,1.41.15,1.92.44s.86.68,1.06,1.17.3,1.17.3,2.05v1.2ZM411.53,17.79v-.66c0-.47-.02-.77-.08-.91s-.15-.21-.31-.21c-.19,0-.31.06-.36.17s-.07.43-.07.94v.66h.81Z"/>
    <path class="st4" d="M418.01,14.57l-.05.84c.2-.33.45-.58.73-.75s.62-.25,1-.25c.47,0,.86.11,1.16.33s.49.5.58.84.13.91.13,1.7v6.36h-2.76v-6.28c0-.62-.02-1-.06-1.14s-.15-.21-.34-.21-.32.08-.37.24-.08.58-.08,1.26v6.13h-2.76v-9.07h2.81Z"/>
    <path class="st4" d="M427.46,18.09h-2.59v-.61c0-.7.08-1.24.24-1.62s.49-.72.97-1.01,1.12-.44,1.9-.44c.93,0,1.64.17,2.11.5s.76.74.85,1.22.14,1.47.14,2.97v4.55h-2.69v-.81c-.17.32-.39.57-.65.73s-.58.24-.95.24c-.48,0-.93-.14-1.33-.41s-.6-.86-.6-1.78v-.75c0-.68.11-1.14.32-1.39s.75-.53,1.59-.86c.91-.36,1.39-.59,1.46-.72s.1-.37.1-.75c0-.47-.04-.78-.11-.93s-.19-.22-.35-.22c-.19,0-.3.06-.35.18s-.07.43-.07.94v.95ZM428.33,19.33c-.44.32-.7.59-.77.81s-.11.53-.11.94c0,.47.03.77.09.91s.18.21.37.21.29-.05.34-.16.08-.39.08-.84v-1.87Z"/>
    <path class="st4" d="M434.81,14.57l-.11,1.19c.4-.85.98-1.31,1.74-1.36v3.19c-.51,0-.88.07-1.11.21s-.38.33-.44.57-.08.81-.08,1.69v3.58h-2.76v-9.07h2.76Z"/>
    <path class="st4" d="M439.82,14.57l-.11,1.19c.4-.85.98-1.31,1.74-1.36v3.19c-.51,0-.88.07-1.11.21s-.38.33-.44.57-.08.81-.08,1.69v3.58h-2.76v-9.07h2.76Z"/>
    <path class="st4" d="M444.53,18.09h-2.59v-.61c0-.7.08-1.24.24-1.62s.49-.72.97-1.01,1.12-.44,1.9-.44c.93,0,1.64.17,2.11.5s.76.74.85,1.22.14,1.47.14,2.97v4.55h-2.69v-.81c-.17.32-.39.57-.65.73s-.58.24-.95.24c-.48,0-.93-.14-1.33-.41s-.6-.86-.6-1.78v-.75c0-.68.11-1.14.32-1.39s.75-.53,1.59-.86c.91-.36,1.39-.59,1.46-.72s.1-.37.1-.75c0-.47-.04-.78-.11-.93s-.19-.22-.35-.22c-.19,0-.3.06-.35.18s-.07.43-.07.94v.95ZM445.41,19.33c-.44.32-.7.59-.77.81s-.11.53-.11.94c0,.47.03.77.09.91s.18.21.37.21.29-.05.34-.16.08-.39.08-.84v-1.87Z"/>
    <path class="st4" d="M454.9,14.57l-.79,6.56c-.12,1.04-.23,1.75-.31,2.13-.08.38-.22.69-.42.94-.2.25-.47.43-.82.54s-.91.17-1.67.17h-1.67v-1.45c.43,0,.71-.02.83-.06.12-.04.19-.14.19-.29,0-.07-.06-.39-.17-.95l-1.51-7.59h2.51l.91,6.12.44-6.12h2.5Z"/>
    <path class="st4" d="M460.63,14.57l-.11,1.19c.4-.85.98-1.31,1.74-1.36v3.19c-.51,0-.88.07-1.11.21-.24.14-.38.33-.44.57s-.08.81-.08,1.69v3.58h-2.76v-9.07h2.76Z"/>
    <path class="st4" d="M469.13,19.27h-3.58v1.96c0,.41.03.67.09.79s.17.18.34.18c.21,0,.35-.08.42-.24.07-.16.11-.46.11-.91v-1.2h2.62v.67c0,.56-.04.99-.11,1.29-.07.3-.24.62-.5.96s-.59.6-.99.77c-.4.17-.9.26-1.5.26s-1.1-.08-1.54-.25c-.45-.17-.79-.4-1.04-.69-.25-.29-.42-.62-.52-.97s-.14-.87-.14-1.54v-2.65c0-.79.11-1.42.32-1.88.21-.46.56-.81,1.05-1.05.49-.24,1.05-.37,1.68-.37.77,0,1.41.15,1.92.44.5.29.86.68,1.06,1.17.2.49.3,1.17.3,2.05v1.2ZM466.36,17.79v-.66c0-.47-.02-.77-.08-.91s-.15-.21-.31-.21c-.19,0-.31.06-.36.17s-.07.43-.07.94v.66h.81Z"/>
    <path class="st4" d="M472.5,18.09h-2.59v-.61c0-.7.08-1.24.24-1.62.16-.38.49-.72.97-1.01s1.12-.44,1.9-.44c.93,0,1.64.17,2.11.5s.76.74.85,1.22.14,1.47.14,2.97v4.55h-2.69v-.81c-.17.32-.39.57-.65.73-.27.16-.58.24-.95.24-.48,0-.93-.14-1.33-.41-.4-.27-.61-.86-.61-1.78v-.75c0-.68.11-1.14.32-1.39s.75-.53,1.59-.86c.91-.36,1.39-.59,1.46-.72s.1-.37.1-.75c0-.47-.04-.78-.11-.93-.07-.14-.19-.22-.35-.22-.19,0-.3.06-.35.18s-.07.43-.07.94v.95ZM473.38,19.33c-.44.32-.7.59-.77.81-.07.22-.11.53-.11.94,0,.47.03.77.09.91.06.14.18.21.37.21.17,0,.29-.05.34-.16.05-.11.08-.39.08-.84v-1.87Z"/>
    <path class="st4" d="M483.19,18h-2.6v-1.05c0-.36-.03-.61-.09-.74s-.17-.19-.33-.19-.27.06-.32.17-.08.37-.08.77v4.28c0,.32.04.57.12.73s.2.24.36.24c.19,0,.31-.08.38-.25.07-.17.1-.49.1-.96v-1.08h2.46c0,.72-.03,1.27-.08,1.63-.05.36-.2.73-.46,1.11-.26.38-.59.67-1.01.86s-.93.29-1.54.29c-.78,0-1.4-.13-1.85-.4s-.78-.64-.97-1.12c-.19-.48-.28-1.16-.28-2.05v-2.58c0-.77.08-1.35.23-1.74s.49-.74.99-1.05,1.12-.46,1.85-.46,1.33.15,1.85.46.85.69,1.02,1.16.25,1.12.25,1.98Z"/>
    <path class="st4" d="M486.77,12.58v2.49c.24-.22.49-.38.77-.49.28-.11.57-.16.88-.16.48,0,.89.12,1.23.37.34.25.55.53.62.85.08.32.11.91.11,1.76v6.25h-2.76v-6.38c0-.53-.03-.87-.08-1.02-.05-.15-.17-.23-.35-.23-.17,0-.28.08-.34.23s-.09.46-.09.92v6.47h-2.76v-11.07h2.76Z"/>
    <path class="st4" d="M497.6,19.27h-3.58v1.96c0,.41.03.67.09.79s.17.18.34.18c.21,0,.35-.08.42-.24.07-.16.11-.46.11-.91v-1.2h2.62v.67c0,.56-.04.99-.11,1.29-.07.3-.24.62-.5.96s-.59.6-.99.77c-.4.17-.9.26-1.5.26s-1.1-.08-1.54-.25-.79-.4-1.04-.69c-.25-.29-.42-.62-.52-.97s-.14-.87-.14-1.54v-2.65c0-.79.11-1.42.32-1.88s.57-.81,1.05-1.05,1.05-.37,1.68-.37c.77,0,1.41.15,1.92.44.5.29.86.68,1.06,1.17.2.49.3,1.17.3,2.05v1.2ZM494.83,17.79v-.66c0-.47-.03-.77-.08-.91s-.15-.21-.31-.21c-.19,0-.31.06-.36.17s-.07.43-.07.94v.66h.81Z"/>
    <path class="st4" d="M504.14,17.47h-2.45v-.49c0-.42-.02-.68-.07-.8-.05-.11-.17-.17-.36-.17-.16,0-.27.05-.35.15s-.12.26-.12.46c0,.28.02.48.06.61.04.13.15.27.35.43.19.15.59.38,1.19.68.8.39,1.33.76,1.58,1.11s.38.85.38,1.51c0,.74-.1,1.3-.29,1.67s-.51.67-.96.87c-.45.2-.99.3-1.62.3-.7,0-1.3-.11-1.8-.33-.5-.22-.84-.52-1.03-.89s-.28-.94-.28-1.7v-.44h2.45v.57c0,.49.03.8.09.95.06.15.18.22.37.22.2,0,.33-.05.41-.15s.12-.3.12-.62c0-.43-.05-.7-.15-.81-.1-.11-.64-.43-1.61-.97-.81-.46-1.31-.87-1.48-1.24s-.27-.81-.27-1.32c0-.72.1-1.26.29-1.6s.52-.61.97-.8c.46-.19.99-.28,1.6-.28s1.11.08,1.54.23c.42.15.74.35.97.6.22.25.36.48.41.7.05.21.07.55.07,1v.53Z"/>
    <path class="st4" d="M510.47,13.36v1.43h.75v1.44h-.75v4.85c0,.6.03.93.09,1,.06.07.32.1.77.1v1.46h-1.11c-.63,0-1.08-.03-1.35-.08s-.51-.17-.71-.36-.33-.41-.38-.65-.08-.82-.08-1.72v-4.61h-.59v-1.44h.59v-1.43h2.77Z"/>
    <path class="st4" d="M518.08,17.76v2.22c0,.82-.04,1.41-.12,1.79s-.26.74-.53,1.07-.61.57-1.04.73c-.42.16-.91.24-1.45.24-.61,0-1.13-.07-1.55-.2s-.75-.34-.99-.61c-.23-.27-.4-.6-.5-.98s-.15-.96-.15-1.73v-2.32c0-.84.09-1.5.27-1.98s.51-.85.98-1.14,1.08-.43,1.82-.43c.62,0,1.15.09,1.6.28.45.18.79.42,1.03.72s.41.6.5.92c.09.31.13.79.13,1.44ZM515.31,17.08c0-.46-.03-.76-.08-.88s-.16-.18-.32-.18-.27.06-.33.18-.08.41-.08.88v4.09c0,.43.03.71.08.84s.16.19.32.19.27-.06.33-.18c.05-.12.08-.37.08-.77v-4.18Z"/>
    <path class="st4" d="M524.3,12.58v1.44h-2.84v-1.44h2.84ZM524.3,14.57v9.07h-2.84v-9.07h2.84Z"/>
    <path class="st4" d="M528.2,13.36v1.43h.75v1.44h-.75v4.85c0,.6.03.93.09,1,.06.07.32.1.77.1v1.46h-1.11c-.63,0-1.08-.03-1.35-.08s-.51-.17-.71-.36-.33-.41-.38-.65-.08-.82-.08-1.72v-4.61h-.59v-1.44h.59v-1.43h2.77Z"/>
    <path class="st4" d="M535.19,17.47h-2.45v-.49c0-.42-.02-.68-.07-.8-.05-.11-.17-.17-.36-.17-.16,0-.27.05-.35.15s-.12.26-.12.46c0,.28.02.48.06.61.04.13.15.27.35.43.19.15.59.38,1.19.68.8.39,1.33.76,1.58,1.11s.38.85.38,1.51c0,.74-.1,1.3-.29,1.67s-.51.67-.96.87c-.45.2-.99.3-1.62.3-.7,0-1.3-.11-1.8-.33-.5-.22-.84-.52-1.03-.89s-.28-.94-.28-1.7v-.44h2.45v.57c0,.49.03.8.09.95.06.15.18.22.37.22.2,0,.33-.05.41-.15s.12-.3.12-.62c0-.43-.05-.7-.15-.81-.1-.11-.64-.43-1.61-.97-.81-.46-1.31-.87-1.48-1.24s-.27-.81-.27-1.32c0-.72.1-1.26.29-1.6s.52-.61.97-.8c.46-.19.99-.28,1.6-.28s1.11.08,1.54.23c.42.15.74.35.97.6.22.25.36.48.41.7.05.21.07.55.07,1v.53Z"/>
    <path class="st4" d="M541.34,14.57l-.05.86c.21-.34.47-.6.77-.77s.63-.26,1.01-.26c.74,0,1.32.34,1.74,1.03.23-.34.49-.6.79-.77s.62-.26.97-.26c.47,0,.86.11,1.17.34.31.23.5.51.59.84s.13.87.13,1.61v6.45h-2.68v-5.91c0-.77-.03-1.25-.08-1.44-.05-.18-.17-.28-.37-.28s-.32.09-.38.27c-.06.18-.08.66-.08,1.44v5.91h-2.68v-5.76c0-.89-.02-1.42-.07-1.6-.04-.18-.16-.27-.36-.27-.12,0-.23.05-.31.14s-.13.21-.14.34-.01.42-.01.86v6.29h-2.68v-9.07h2.73Z"/>
    <path class="st4" d="M551.87,18.09h-2.59v-.61c0-.7.08-1.24.24-1.62.16-.38.49-.72.97-1.01s1.12-.44,1.9-.44c.93,0,1.64.17,2.11.5s.76.74.85,1.22.14,1.47.14,2.97v4.55h-2.69v-.81c-.17.32-.39.57-.65.73-.27.16-.58.24-.95.24-.48,0-.93-.14-1.33-.41-.4-.27-.61-.86-.61-1.78v-.75c0-.68.11-1.14.32-1.39s.75-.53,1.59-.86c.91-.36,1.39-.59,1.46-.72s.1-.37.1-.75c0-.47-.04-.78-.11-.93-.07-.14-.19-.22-.35-.22-.19,0-.3.06-.35.18s-.07.43-.07.94v.95ZM552.75,19.33c-.44.32-.7.59-.77.81-.07.22-.11.53-.11.94,0,.47.03.77.09.91.06.14.18.21.37.21.17,0,.29-.05.34-.16.05-.11.08-.39.08-.84v-1.87Z"/>
    <path class="st4" d="M561.94,14.57l-1.1,4.33,1.33,4.74h-2.68c-.27-1.2-.47-2.23-.61-3.09-.18,1.08-.38,2.11-.6,3.09h-2.31l1.19-4.74-1.19-4.33h2.31c.37,1.85.57,2.91.6,3.16.27-1.55.47-2.6.61-3.16h2.45Z"/>
    <path class="st4" d="M571.1,18h-2.6v-1.05c0-.36-.03-.61-.09-.74s-.17-.19-.33-.19-.27.06-.32.17-.08.37-.08.77v4.28c0,.32.04.57.12.73s.2.24.36.24c.19,0,.31-.08.38-.25.07-.17.1-.49.1-.96v-1.08h2.46c0,.72-.03,1.27-.08,1.63-.05.36-.2.73-.46,1.11-.26.38-.59.67-1.01.86s-.93.29-1.54.29c-.78,0-1.4-.13-1.85-.4s-.78-.64-.97-1.12c-.19-.48-.28-1.16-.28-2.05v-2.58c0-.77.08-1.35.23-1.74s.49-.74.99-1.05,1.12-.46,1.85-.46,1.33.15,1.85.46.85.69,1.02,1.16.25,1.12.25,1.98Z"/>
    <path class="st4" d="M574.39,18.09h-2.59v-.61c0-.7.08-1.24.24-1.62.16-.38.49-.72.97-1.01s1.12-.44,1.9-.44c.93,0,1.64.17,2.11.5s.76.74.85,1.22.14,1.47.14,2.97v4.55h-2.69v-.81c-.17.32-.39.57-.65.73-.27.16-.58.24-.95.24-.48,0-.93-.14-1.33-.41-.4-.27-.61-.86-.61-1.78v-.75c0-.68.11-1.14.32-1.39s.75-.53,1.59-.86c.91-.36,1.39-.59,1.46-.72s.1-.37.1-.75c0-.47-.04-.78-.11-.93-.07-.14-.19-.22-.35-.22-.19,0-.3.06-.35.18s-.07.43-.07.94v.95ZM575.27,19.33c-.44.32-.7.59-.77.81-.07.22-.11.53-.11.94,0,.47.03.77.09.91.06.14.18.21.37.21.17,0,.29-.05.34-.16.05-.11.08-.39.08-.84v-1.87Z"/>
    <path class="st4" d="M581.79,14.57l-.05.8c.25-.32.52-.57.81-.73s.62-.24.97-.24c.43,0,.8.12,1.11.35.31.23.51.5.58.8s.12.81.12,1.53v3.82c0,.82-.05,1.41-.15,1.76-.1.35-.3.63-.6.83-.3.21-.67.31-1.1.31-.34,0-.66-.08-.95-.24s-.56-.4-.8-.71v2.08h-2.76v-10.36h2.81ZM582.57,17.21c0-.56-.02-.9-.06-1.02s-.16-.18-.34-.18-.3.07-.35.21c-.05.14-.08.47-.08.99v3.76c0,.55.03.89.08,1.03s.17.21.36.21.29-.06.33-.19c.04-.13.06-.43.06-.91v-3.89Z"/>
    <path class="st4" d="M588.71,18.09h-2.59v-.61c0-.7.08-1.24.24-1.62.16-.38.49-.72.97-1.01s1.12-.44,1.9-.44c.93,0,1.64.17,2.11.5s.76.74.85,1.22.14,1.47.14,2.97v4.55h-2.69v-.81c-.17.32-.39.57-.65.73-.27.16-.58.24-.95.24-.48,0-.93-.14-1.33-.41-.4-.27-.61-.86-.61-1.78v-.75c0-.68.11-1.14.32-1.39s.75-.53,1.59-.86c.91-.36,1.39-.59,1.46-.72s.1-.37.1-.75c0-.47-.04-.78-.11-.93-.07-.14-.19-.22-.35-.22-.19,0-.3.06-.35.18s-.07.43-.07.94v.95ZM589.59,19.33c-.44.32-.7.59-.77.81-.07.22-.11.53-.11.94,0,.47.03.77.09.91.06.14.18.21.37.21.17,0,.29-.05.34-.16.05-.11.08-.39.08-.84v-1.87Z"/>
    <path class="st4" d="M599.4,18h-2.6v-1.05c0-.36-.03-.61-.09-.74s-.17-.19-.33-.19-.27.06-.32.17-.08.37-.08.77v4.28c0,.32.04.57.12.73s.2.24.36.24c.19,0,.31-.08.38-.25.07-.17.1-.49.1-.96v-1.08h2.46c0,.72-.03,1.27-.08,1.63-.05.36-.2.73-.46,1.11-.26.38-.59.67-1.01.86s-.93.29-1.54.29c-.78,0-1.4-.13-1.85-.4s-.78-.64-.97-1.12c-.19-.48-.28-1.16-.28-2.05v-2.58c0-.77.08-1.35.23-1.74s.49-.74.99-1.05,1.12-.46,1.85-.46,1.33.15,1.85.46.85.69,1.02,1.16.25,1.12.25,1.98Z"/>
    <path class="st4" d="M603.07,12.58v1.44h-2.84v-1.44h2.84ZM603.07,14.57v9.07h-2.84v-9.07h2.84Z"/>
    <path class="st4" d="M606.97,13.36v1.43h.75v1.44h-.75v4.85c0,.6.03.93.09,1,.06.07.32.1.77.1v1.46h-1.11c-.63,0-1.08-.03-1.35-.08s-.51-.17-.71-.36-.33-.41-.38-.65-.08-.82-.08-1.72v-4.61h-.59v-1.44h.59v-1.43h2.77Z"/>
    <path class="st4" d="M614.39,14.57l-.79,6.56c-.12,1.04-.23,1.75-.31,2.13s-.22.69-.42.94c-.2.25-.47.43-.82.54s-.91.17-1.67.17h-1.67v-1.45c.43,0,.71-.02.83-.06.12-.04.19-.14.19-.29,0-.07-.06-.39-.17-.95l-1.51-7.59h2.51l.91,6.12.44-6.12h2.5Z"/>
    <path class="st4" d="M341.69,29.38v1.44h-2.84v-1.44h2.84ZM341.69,31.37v9.07h-2.84v-9.07h2.84Z"/>
    <path class="st4" d="M345.6,30.16v1.43h.75v1.44h-.75v4.85c0,.6.03.93.09,1s.32.1.77.1v1.46h-1.11c-.63,0-1.08-.03-1.35-.08s-.51-.17-.71-.36-.33-.41-.38-.65-.08-.82-.08-1.72v-4.61h-.59v-1.44h.59v-1.43h2.77Z"/>
    <path class="st4" d="M348.56,29.38v.99c0,.52-.06.94-.18,1.27s-.34.62-.64.85-.65.39-1.03.47v-.8c.27-.15.43-.36.46-.62h-.46v-2.17h1.85Z"/>
    <path class="st4" d="M352.15,29.38v11.07h-2.84v-11.07h2.84Z"/>
    <path class="st4" d="M355.98,29.38v11.07h-2.84v-11.07h2.84Z"/>
    <path class="st4" d="M362.28,29.38v1.44h-2.84v-1.44h2.84ZM362.28,31.37v9.07h-2.84v-9.07h2.84Z"/>
    <path class="st4" d="M366.09,31.37l-.05.84c.2-.33.45-.58.73-.75s.62-.25,1-.25c.47,0,.86.11,1.16.33s.49.5.58.84.13.91.13,1.7v6.36h-2.76v-6.28c0-.62-.02-1-.06-1.14s-.15-.21-.34-.21-.32.08-.37.24-.08.58-.08,1.26v6.13h-2.76v-9.07h2.81Z"/>
    <path class="st4" d="M376.7,34.8h-2.6v-1.05c0-.36-.03-.61-.09-.74s-.17-.19-.33-.19-.27.06-.32.17-.08.37-.08.77v4.28c0,.32.04.57.12.73s.2.24.36.24c.19,0,.31-.08.38-.25s.1-.49.1-.96v-1.08h2.46c0,.72-.03,1.27-.08,1.63s-.2.73-.46,1.11-.59.67-1.01.86-.93.29-1.54.29c-.78,0-1.4-.13-1.85-.4s-.78-.64-.97-1.12-.28-1.16-.28-2.05v-2.58c0-.77.08-1.35.23-1.74s.49-.74.99-1.05,1.12-.46,1.85-.46,1.34.15,1.85.46.85.69,1.02,1.16.25,1.12.25,1.98Z"/>
    <path class="st4" d="M380.28,31.37l-.11,1.19c.4-.85.98-1.31,1.74-1.36v3.19c-.51,0-.88.07-1.11.21s-.38.33-.44.57-.08.81-.08,1.69v3.58h-2.76v-9.07h2.76Z"/>
    <path class="st4" d="M388.79,36.07h-3.58v1.96c0,.41.03.67.09.79s.17.18.34.18c.21,0,.35-.08.42-.24s.11-.46.11-.91v-1.2h2.62v.67c0,.56-.04.99-.11,1.29s-.24.62-.5.96-.59.6-.99.77-.9.26-1.5.26-1.1-.08-1.54-.25-.79-.4-1.04-.69-.42-.62-.52-.97-.14-.87-.14-1.54v-2.65c0-.79.11-1.42.32-1.88s.56-.81,1.05-1.05,1.05-.37,1.68-.37c.77,0,1.41.15,1.92.44s.86.68,1.06,1.17.3,1.17.3,2.05v1.2ZM386.02,34.59v-.66c0-.47-.02-.77-.08-.91s-.15-.21-.31-.21c-.19,0-.31.06-.36.17s-.07.43-.07.94v.66h.81Z"/>
    <path class="st4" d="M392.16,34.89h-2.59v-.61c0-.7.08-1.24.24-1.62s.49-.72.97-1.01,1.12-.44,1.9-.44c.93,0,1.64.17,2.11.5s.76.74.85,1.22.14,1.47.14,2.97v4.55h-2.69v-.81c-.17.32-.39.57-.65.73s-.58.24-.95.24c-.48,0-.93-.14-1.33-.41s-.6-.86-.6-1.78v-.75c0-.68.11-1.14.32-1.39s.75-.53,1.59-.86c.91-.36,1.39-.59,1.46-.72s.1-.37.1-.75c0-.47-.04-.78-.11-.93s-.19-.22-.35-.22c-.19,0-.3.06-.35.18s-.07.43-.07.94v.95ZM393.03,36.13c-.44.32-.7.59-.77.81s-.11.53-.11.94c0,.47.03.77.09.91s.18.21.37.21.29-.05.34-.16.08-.39.08-.84v-1.87Z"/>
    <path class="st4" d="M402.38,34.27h-2.45v-.49c0-.42-.02-.68-.07-.8s-.17-.17-.36-.17c-.15,0-.27.05-.35.15s-.12.26-.12.46c0,.28.02.48.06.61s.15.27.35.43.59.38,1.19.68c.8.39,1.33.76,1.58,1.11s.38.85.38,1.51c0,.74-.1,1.3-.29,1.67s-.51.67-.96.87-.99.3-1.62.3c-.7,0-1.3-.11-1.8-.33s-.84-.52-1.03-.89-.28-.94-.28-1.7v-.44h2.45v.57c0,.49.03.8.09.95s.18.22.37.22c.2,0,.33-.05.41-.15s.12-.3.12-.62c0-.43-.05-.7-.15-.81-.1-.11-.64-.43-1.61-.97-.81-.46-1.31-.87-1.48-1.24s-.27-.81-.27-1.32c0-.72.1-1.26.29-1.6s.52-.61.97-.8.99-.28,1.6-.28,1.11.08,1.53.23.75.35.97.6.36.48.41.7.07.55.07,1v.53Z"/>
    <path class="st4" d="M409.59,36.07h-3.58v1.96c0,.41.03.67.09.79s.17.18.34.18c.21,0,.35-.08.42-.24s.11-.46.11-.91v-1.2h2.62v.67c0,.56-.04.99-.11,1.29s-.24.62-.5.96-.59.6-.99.77-.9.26-1.5.26-1.1-.08-1.54-.25-.79-.4-1.04-.69-.42-.62-.52-.97-.14-.87-.14-1.54v-2.65c0-.79.11-1.42.32-1.88s.56-.81,1.05-1.05,1.05-.37,1.68-.37c.77,0,1.41.15,1.92.44s.86.68,1.06,1.17.3,1.17.3,2.05v1.2ZM406.82,34.59v-.66c0-.47-.02-.77-.08-.91s-.15-.21-.31-.21c-.19,0-.31.06-.36.17s-.07.43-.07.94v.66h.81Z"/>
    <path class="st4" d="M415.8,29.38v1.44h-2.84v-1.44h2.84ZM415.8,31.37v9.07h-2.84v-9.07h2.84Z"/>
    <path class="st4" d="M419.71,30.16v1.43h.75v1.44h-.75v4.85c0,.6.03.93.09,1s.32.1.77.1v1.46h-1.11c-.63,0-1.08-.03-1.35-.08s-.51-.17-.71-.36-.33-.41-.38-.65-.08-.82-.08-1.72v-4.61h-.59v-1.44h.59v-1.43h2.77Z"/>
    <path class="st4" d="M426.7,34.27h-2.45v-.49c0-.42-.02-.68-.07-.8s-.17-.17-.36-.17c-.15,0-.27.05-.35.15s-.12.26-.12.46c0,.28.02.48.06.61s.15.27.35.43.59.38,1.19.68c.8.39,1.33.76,1.58,1.11s.38.85.38,1.51c0,.74-.1,1.3-.29,1.67s-.51.67-.96.87-.99.3-1.62.3c-.7,0-1.3-.11-1.8-.33s-.84-.52-1.03-.89-.28-.94-.28-1.7v-.44h2.45v.57c0,.49.03.8.09.95s.18.22.37.22c.2,0,.33-.05.41-.15s.12-.3.12-.62c0-.43-.05-.7-.15-.81-.1-.11-.64-.43-1.61-.97-.81-.46-1.31-.87-1.48-1.24s-.27-.81-.27-1.32c0-.72.1-1.26.29-1.6s.52-.61.97-.8.99-.28,1.6-.28,1.11.08,1.53.23.75.35.97.6.36.48.41.7.07.55.07,1v.53Z"/>
    <path class="st4" d="M436.22,34.8h-2.6v-1.05c0-.36-.03-.61-.09-.74s-.17-.19-.33-.19-.27.06-.32.17-.08.37-.08.77v4.28c0,.32.04.57.12.73s.2.24.36.24c.19,0,.31-.08.38-.25s.1-.49.1-.96v-1.08h2.46c0,.72-.03,1.27-.08,1.63s-.2.73-.46,1.11-.59.67-1.01.86-.93.29-1.54.29c-.78,0-1.4-.13-1.85-.4s-.78-.64-.97-1.12-.28-1.16-.28-2.05v-2.58c0-.77.08-1.35.23-1.74s.49-.74.99-1.05,1.12-.46,1.85-.46,1.34.15,1.85.46.85.69,1.02,1.16.25,1.12.25,1.98Z"/>
    <path class="st4" d="M439.51,34.89h-2.59v-.61c0-.7.08-1.24.24-1.62s.49-.72.97-1.01,1.12-.44,1.9-.44c.93,0,1.64.17,2.11.5s.76.74.85,1.22.14,1.47.14,2.97v4.55h-2.69v-.81c-.17.32-.39.57-.65.73s-.58.24-.95.24c-.48,0-.93-.14-1.33-.41s-.6-.86-.6-1.78v-.75c0-.68.11-1.14.32-1.39s.75-.53,1.59-.86c.91-.36,1.39-.59,1.46-.72s.1-.37.1-.75c0-.47-.04-.78-.11-.93s-.19-.22-.35-.22c-.19,0-.3.06-.35.18s-.07.43-.07.94v.95ZM440.39,36.13c-.44.32-.7.59-.77.81s-.11.53-.11.94c0,.47.03.77.09.91s.18.21.37.21.29-.05.34-.16.08-.39.08-.84v-1.87Z"/>
    <path class="st4" d="M446.91,31.37l-.05.8c.25-.32.52-.57.81-.73s.62-.24.97-.24c.43,0,.8.12,1.11.35s.51.5.58.8.12.81.12,1.53v3.82c0,.82-.05,1.41-.15,1.76s-.3.63-.6.83-.67.31-1.1.31c-.34,0-.66-.08-.95-.24s-.56-.4-.8-.71v2.08h-2.76v-10.36h2.81ZM447.69,34.01c0-.56-.02-.9-.06-1.02s-.15-.18-.34-.18-.3.07-.35.21-.08.47-.08.99v3.76c0,.55.03.89.08,1.03s.17.21.36.21.29-.06.33-.19.06-.43.06-.91v-3.89Z"/>
    <path class="st4" d="M453.83,34.89h-2.59v-.61c0-.7.08-1.24.24-1.62.16-.38.49-.72.97-1.01.49-.29,1.12-.44,1.9-.44.93,0,1.64.17,2.11.5.47.33.76.74.85,1.22s.14,1.47.14,2.97v4.55h-2.69v-.81c-.17.32-.39.57-.65.73s-.58.24-.95.24c-.48,0-.93-.14-1.33-.41s-.6-.86-.6-1.78v-.75c0-.68.11-1.14.32-1.39.21-.25.75-.53,1.59-.86.91-.36,1.39-.59,1.46-.72.06-.12.1-.37.1-.75,0-.47-.04-.78-.11-.93-.07-.14-.19-.22-.35-.22-.19,0-.3.06-.35.18-.05.12-.07.43-.07.94v.95ZM454.71,36.13c-.44.32-.7.59-.77.81-.07.22-.11.53-.11.94,0,.47.03.77.09.91s.18.21.37.21c.17,0,.29-.05.34-.16.05-.11.08-.39.08-.84v-1.87Z"/>
    <path class="st4" d="M464.52,34.8h-2.6v-1.05c0-.36-.03-.61-.09-.74-.06-.13-.17-.19-.33-.19s-.27.06-.32.17-.08.37-.08.77v4.28c0,.32.04.57.12.73s.2.24.36.24c.19,0,.31-.08.38-.25.07-.17.1-.49.1-.96v-1.08h2.46c0,.72-.03,1.27-.08,1.63s-.2.73-.46,1.11c-.26.38-.59.67-1.01.86-.42.19-.93.29-1.54.29-.78,0-1.4-.13-1.85-.4-.46-.27-.78-.64-.97-1.12-.19-.48-.28-1.16-.28-2.05v-2.58c0-.77.08-1.35.23-1.74.15-.39.49-.74.99-1.05s1.12-.46,1.85-.46,1.33.15,1.85.46c.51.31.85.69,1.02,1.16.17.46.25,1.12.25,1.98Z"/>
    <path class="st4" d="M468.19,29.38v1.44h-2.84v-1.44h2.84ZM468.19,31.37v9.07h-2.84v-9.07h2.84Z"/>
    <path class="st4" d="M472.09,30.16v1.43h.75v1.44h-.75v4.85c0,.6.03.93.09,1,.06.07.32.1.77.1v1.46h-1.11c-.63,0-1.08-.03-1.35-.08s-.51-.17-.71-.36-.33-.41-.38-.65-.08-.82-.08-1.72v-4.61h-.59v-1.44h.59v-1.43h2.77Z"/>
    <path class="st4" d="M479.51,31.37l-.79,6.56c-.12,1.04-.23,1.75-.31,2.13s-.22.69-.42.94c-.2.25-.47.43-.82.54s-.91.17-1.67.17h-1.67v-1.45c.43,0,.71-.02.83-.06.12-.04.19-.14.19-.29,0-.07-.06-.39-.17-.95l-1.51-7.59h2.51l.91,6.12.44-6.12h2.5Z"/>
    <path class="st4" d="M484.94,34.89h-2.59v-.61c0-.7.08-1.24.24-1.62.16-.38.49-.72.97-1.01s1.12-.44,1.9-.44c.93,0,1.64.17,2.11.5s.76.74.85,1.22.14,1.47.14,2.97v4.55h-2.69v-.81c-.17.32-.39.57-.65.73-.27.16-.58.24-.95.24-.48,0-.93-.14-1.33-.41-.4-.27-.61-.86-.61-1.78v-.75c0-.68.11-1.14.32-1.39s.75-.53,1.59-.86c.91-.36,1.39-.59,1.46-.72s.1-.37.1-.75c0-.47-.04-.78-.11-.93-.07-.14-.19-.22-.35-.22-.19,0-.3.06-.35.18s-.07.43-.07.94v.95ZM485.81,36.13c-.44.32-.7.59-.77.81-.07.22-.11.53-.11.94,0,.47.03.77.09.91.06.14.18.21.37.21.17,0,.29-.05.34-.16.05-.11.08-.39.08-.84v-1.87Z"/>
    <path class="st4" d="M495.85,31.37v9.07h-2.81l.05-.75c-.19.31-.43.54-.71.69-.28.15-.6.23-.97.23-.42,0-.76-.07-1.03-.22s-.48-.34-.6-.58c-.13-.24-.21-.49-.24-.76s-.05-.78-.05-1.56v-6.12h2.76v6.17c0,.71.02,1.13.06,1.26.04.13.16.2.35.2.21,0,.33-.07.37-.21.04-.14.06-.58.06-1.32v-6.1h2.76Z"/>
    <path class="st4" d="M499.75,30.16v1.43h.75v1.44h-.75v4.85c0,.6.03.93.09,1,.06.07.32.1.77.1v1.46h-1.11c-.63,0-1.08-.03-1.35-.08s-.51-.17-.71-.36-.33-.41-.38-.65-.08-.82-.08-1.72v-4.61h-.59v-1.44h.59v-1.43h2.77Z"/>
    <path class="st4" d="M507.35,34.56v2.22c0,.82-.04,1.41-.12,1.79s-.26.74-.53,1.07-.61.57-1.04.73c-.42.16-.91.24-1.45.24-.61,0-1.13-.07-1.55-.2s-.75-.34-.99-.61c-.23-.27-.4-.6-.5-.98s-.15-.96-.15-1.73v-2.32c0-.84.09-1.5.27-1.98s.51-.85.98-1.14,1.08-.43,1.82-.43c.62,0,1.15.09,1.6.28.45.18.79.42,1.03.72s.41.6.5.92c.09.31.13.79.13,1.44ZM504.59,33.88c0-.46-.03-.76-.08-.88s-.16-.18-.32-.18-.27.06-.33.18-.08.41-.08.88v4.09c0,.43.03.71.08.84s.16.19.32.19.27-.06.33-.18c.05-.12.08-.37.08-.77v-4.18Z"/>
    <path class="st4" d="M510.99,31.37l-.05.86c.21-.34.47-.6.77-.77s.63-.26,1.01-.26c.74,0,1.32.34,1.74,1.03.23-.34.49-.6.79-.77s.62-.26.97-.26c.47,0,.86.11,1.17.34.31.23.5.51.59.84s.13.87.13,1.61v6.45h-2.68v-5.91c0-.77-.03-1.25-.08-1.44-.05-.18-.17-.28-.37-.28s-.32.09-.38.27c-.06.18-.08.66-.08,1.44v5.91h-2.68v-5.76c0-.89-.02-1.42-.07-1.6-.04-.18-.16-.27-.36-.27-.12,0-.23.05-.31.14s-.13.21-.14.34-.01.42-.01.86v6.29h-2.68v-9.07h2.73Z"/>
    <path class="st4" d="M521.52,34.89h-2.59v-.61c0-.7.08-1.24.24-1.62.16-.38.49-.72.97-1.01s1.12-.44,1.9-.44c.93,0,1.64.17,2.11.5s.76.74.85,1.22.14,1.47.14,2.97v4.55h-2.69v-.81c-.17.32-.39.57-.65.73-.27.16-.58.24-.95.24-.48,0-.93-.14-1.33-.41-.4-.27-.61-.86-.61-1.78v-.75c0-.68.11-1.14.32-1.39s.75-.53,1.59-.86c.91-.36,1.39-.59,1.46-.72s.1-.37.1-.75c0-.47-.04-.78-.11-.93-.07-.14-.19-.22-.35-.22-.19,0-.3.06-.35.18s-.07.43-.07.94v.95ZM522.4,36.13c-.44.32-.7.59-.77.81-.07.22-.11.53-.11.94,0,.47.03.77.09.91.06.14.18.21.37.21.17,0,.29-.05.34-.16.05-.11.08-.39.08-.84v-1.87Z"/>
    <path class="st4" d="M529.02,30.16v1.43h.75v1.44h-.75v4.85c0,.6.03.93.09,1,.06.07.32.1.77.1v1.46h-1.11c-.63,0-1.08-.03-1.35-.08s-.51-.17-.71-.36-.33-.41-.38-.65-.08-.82-.08-1.72v-4.61h-.59v-1.44h.59v-1.43h2.77Z"/>
    <path class="st4" d="M533.22,29.38v1.44h-2.84v-1.44h2.84ZM533.22,31.37v9.07h-2.84v-9.07h2.84Z"/>
    <path class="st4" d="M540.31,34.8h-2.6v-1.05c0-.36-.03-.61-.09-.74s-.17-.19-.33-.19-.27.06-.32.17-.08.37-.08.77v4.28c0,.32.04.57.12.73s.2.24.36.24c.19,0,.31-.08.38-.25.07-.17.1-.49.1-.96v-1.08h2.46c0,.72-.03,1.27-.08,1.63-.05.36-.2.73-.46,1.11-.26.38-.59.67-1.01.86s-.93.29-1.54.29c-.78,0-1.4-.13-1.85-.4s-.78-.64-.97-1.12c-.19-.48-.28-1.16-.28-2.05v-2.58c0-.77.08-1.35.23-1.74s.49-.74.99-1.05,1.12-.46,1.85-.46,1.33.15,1.85.46.85.69,1.02,1.16.25,1.12.25,1.98Z"/>
    <path class="st4" d="M543.6,34.89h-2.59v-.61c0-.7.08-1.24.24-1.62.16-.38.49-.72.97-1.01s1.12-.44,1.9-.44c.93,0,1.64.17,2.11.5s.76.74.85,1.22.14,1.47.14,2.97v4.55h-2.69v-.81c-.17.32-.39.57-.65.73-.27.16-.58.24-.95.24-.48,0-.93-.14-1.33-.41-.4-.27-.61-.86-.61-1.78v-.75c0-.68.11-1.14.32-1.39s.75-.53,1.59-.86c.91-.36,1.39-.59,1.46-.72s.1-.37.1-.75c0-.47-.04-.78-.11-.93-.07-.14-.19-.22-.35-.22-.19,0-.3.06-.35.18s-.07.43-.07.94v.95ZM544.48,36.13c-.44.32-.7.59-.77.81-.07.22-.11.53-.11.94,0,.47.03.77.09.91.06.14.18.21.37.21.17,0,.29-.05.34-.16.05-.11.08-.39.08-.84v-1.87Z"/>
    <path class="st4" d="M551.03,29.38v11.07h-2.84v-11.07h2.84Z"/>
    <path class="st4" d="M554.87,29.38v11.07h-2.84v-11.07h2.84Z"/>
    <path class="st4" d="M561.64,31.37l-.79,6.56c-.12,1.04-.23,1.75-.31,2.13s-.22.69-.42.94c-.2.25-.47.43-.82.54s-.91.17-1.67.17h-1.67v-1.45c.43,0,.71-.02.83-.06.12-.04.19-.14.19-.29,0-.07-.06-.39-.17-.95l-1.51-7.59h2.51l.91,6.12.44-6.12h2.5Z"/>
  </g>
  <rect class="st5" x="324.19" y="69.31" width="72.68" height="72.68" rx="19.23" ry="19.23"/>
  <rect class="st5" x="396.87" y="69.31" width="72.68" height="72.68" rx="19.23" ry="19.23"/>
  <rect class="st5" x="469.54" y="69.31" width="72.68" height="72.68" rx="19.23" ry="19.23"/>
  <text class="st0" transform="translate(355.39 114.57)"><tspan x="0" y="0">1</tspan></text>
  <text class="st0" transform="translate(421.3 114.57)"><tspan x="0" y="0">12</tspan></text>
  <text class="st0" transform="translate(498.73 114.57)"><tspan x="0" y="0">3</tspan></text>
  <text class="st1" transform="translate(345.06 164.1)"><tspan x="0" y="0">0X01</tspan></text>
  <text class="st1" transform="translate(417.03 164.1)"><tspan x="0" y="0">0X02</tspan></text>
  <text class="st1" transform="translate(488.82 164.33)"><tspan x="0" y="0">0X03</tspan></text>
  <rect class="st5" x="178.84" y="196.65" width="72.68" height="72.68" rx="19.23" ry="19.23"/>
  <rect class="st5" x="251.51" y="196.65" width="72.68" height="72.68" rx="19.23" ry="19.23"/>
  <rect class="st5" x="324.19" y="196.65" width="72.68" height="72.68" rx="19.23" ry="19.23"/>
  <rect class="st5" x="396.87" y="196.65" width="72.68" height="72.68" rx="19.23" ry="19.23"/>
  <rect class="st5" x="469.54" y="196.65" width="72.68" height="72.68" rx="19.23" ry="19.23"/>
  <text class="st1" transform="translate(199.7 291.43)"><tspan x="0" y="0">0X01</tspan></text>
  <text class="st1" transform="translate(271.68 291.43)"><tspan x="0" y="0">0X02</tspan></text>
  <text class="st1" transform="translate(343.46 291.67)"><tspan x="0" y="0">0X03</tspan></text>
  <text class="st1" transform="translate(417.05 291.67)"><tspan x="0" y="0">0X04</tspan></text>
  <text class="st1" transform="translate(489.44 291.43)"><tspan x="0" y="0">0X05</tspan></text>
  <rect class="st5" x="542.22" y="196.65" width="72.68" height="72.68" rx="19.23" ry="19.23"/>
  <text class="st1" transform="translate(562.07 291.43)"><tspan x="0" y="0">0X06</tspan></text>
  <rect class="st5" x="614.9" y="196.65" width="72.68" height="72.68" rx="19.23" ry="19.23"/>
  <text class="st1" transform="translate(635.93 291.43)"><tspan x="0" y="0">0X07</tspan></text>
  <rect class="st5" x="178.5" y="327.89" width="72.68" height="72.68" rx="19.23" ry="19.23"/>
  <rect class="st5" x="251.17" y="327.89" width="72.68" height="72.68" rx="19.23" ry="19.23"/>
  <rect class="st5" x="323.85" y="327.89" width="72.68" height="72.68" rx="19.23" ry="19.23"/>
  <rect class="st5" x="396.53" y="327.89" width="72.68" height="72.68" rx="19.23" ry="19.23"/>
  <rect class="st5" x="469.2" y="327.89" width="72.68" height="72.68" rx="19.23" ry="19.23"/>
  <text class="st0" transform="translate(209.7 373.15)"><tspan x="0" y="0">1</tspan></text>
  <text class="st0" transform="translate(275.61 373.15)"><tspan x="0" y="0">12</tspan></text>
  <text class="st0" transform="translate(353.04 373.15)"><tspan x="0" y="0">3</tspan></text>
  <text class="st0" transform="translate(418.26 373.15)"><tspan x="0" y="0">99</tspan></text>
  <text class="st1" transform="translate(199.36 422.68)"><tspan x="0" y="0">0X01</tspan></text>
  <text class="st1" transform="translate(271.34 422.68)"><tspan x="0" y="0">0X02</tspan></text>
  <text class="st1" transform="translate(343.12 422.92)"><tspan x="0" y="0">0X03</tspan></text>
  <text class="st1" transform="translate(416.71 422.92)"><tspan x="0" y="0">0X04</tspan></text>
  <text class="st1" transform="translate(489.1 422.68)"><tspan x="0" y="0">0X05</tspan></text>
  <rect class="st5" x="541.88" y="327.89" width="72.68" height="72.68" rx="19.23" ry="19.23"/>
  <text class="st1" transform="translate(561.73 422.68)"><tspan x="0" y="0">0X06</tspan></text>
  <rect class="st5" x="614.56" y="327.89" width="72.68" height="72.68" rx="19.23" ry="19.23"/>
  <text class="st1" transform="translate(635.59 422.68)"><tspan x="0" y="0">0X07</tspan></text>
  <text class="st3" transform="translate(253.27 113.62)"><tspan x="0" y="0">Array</tspan></text>
  <text class="st3" transform="translate(74.06 242.53)"><tspan x="0" y="0">New Array</tspan></text>
  <text class="st3" transform="translate(73.72 374.32)"><tspan x="0" y="0">New Array</tspan></text>
  <g>
    <path class="st7" d="M582.98,105.65s369.3,117.87,162.08,126.82"/>
    <polygon class="st6" points="723.89 232.99 753.38 219.95 746.64 232.34 754.07 244.33 723.89 232.99"/>
  </g>
  <text class="st2" transform="translate(738.64 150.35)"><tspan x="0" y="0">Copy Data Into </tspan><tspan x="12.62" y="16.8">New Array</tspan></text>
  <text class="st2" transform="translate(406.52 346.02)"><tspan x="0" y="0">New Data</tspan></text>
</svg>