<?xml version="1.0" encoding="UTF-8"?>
<svg id="Layer_1" xmlns="http://www.w3.org/2000/svg" version="1.1" viewBox="0 0 900 470">
  <!-- Generator: Adobe Illustrator 29.2.1, SVG Export Plug-In . SVG Version: 2.1.0 Build 116)  -->
  <defs>
    <style>
      .st0 {
        stroke: #ff2c2c;
      }

      .st0, .st1, .st2 {
        stroke-width: 3px;
      }

      .st0, .st1, .st2, .st3, .st4 {
        stroke-miterlimit: 10;
      }

      .st0, .st2 {
        fill: none;
      }

      .st1, .st3, .st4 {
        stroke: #000;
      }

      .st5, .st6 {
        fill: #fff;
      }

      .st5, .st6, .st7, .st8, .st9 {
        font-family: Impact, Impact;
      }

      .st5, .st8 {
        font-size: 17.78px;
      }

      .st2 {
        stroke: #fbb03b;
      }

      .st6, .st7 {
        font-size: 13.55px;
      }

      .st3, .st9 {
        fill: #ffd600;
      }

      .st10 {
        fill: #ff4747;
      }

      .st4 {
        fill: #ff2c2c;
      }

      .st11 {
        fill: #fbb03b;
      }

      .st9 {
        font-size: 21px;
      }
    </style>
  </defs>
  <g>
    <rect class="st3" x="94.64" y="131" width="213.9" height="82.15" rx="19.23" ry="19.23"/>
    <text class="st8" transform="translate(127.14 179.11)"><tspan x="0" y="0">Data</tspan></text>
    <text class="st7" transform="translate(210.69 169.3)"><tspan x="0" y="0">Address of the </tspan><tspan x="12.44" y="16.25">next node</tspan></text>
    <line class="st1" x1="190.32" y1="131" x2="190.32" y2="213.15"/>
  </g>
  <g>
    <rect class="st3" x="585.77" y="131" width="213.9" height="82.15" rx="19.23" ry="19.23"/>
    <text class="st8" transform="translate(618.27 179.11)"><tspan x="0" y="0">Data</tspan></text>
    <text class="st7" transform="translate(701.82 169.31)"><tspan x="0" y="0">Address of the </tspan><tspan x="12.44" y="16.25">next node</tspan></text>
    <line class="st1" x1="681.45" y1="131" x2="681.45" y2="213.16"/>
  </g>
  <g>
    <rect class="st4" x="370.87" y="286.28" width="213.9" height="82.15" rx="19.23" ry="19.23"/>
    <text class="st5" transform="translate(404.64 323.59)"><tspan x="0" y="0">New </tspan><tspan x="-1.27" y="21.33">Data</tspan></text>
    <text class="st6" transform="translate(486.92 324.59)"><tspan x="0" y="0">Address of the </tspan><tspan x="12.44" y="16.25">next node</tspan></text>
    <line class="st1" x1="466.55" y1="286.28" x2="466.55" y2="368.44"/>
  </g>
  <g>
    <line class="st2" x1="379.19" y1="172.1" x2="524.19" y2="172.1"/>
    <polygon class="st11" points="501.1 200.58 496.36 195.49 521.52 172.1 496.36 148.7 501.1 143.59 531.76 172.1 501.1 200.58"/>
  </g>
  <text class="st9" transform="translate(271.87 34.89)"><tspan x="0" y="0">ADDING A NEW DATA INTO SINGLY LINKED LIST</tspan></text>
  <line class="st0" x1="394.98" y1="117.94" x2="514.06" y2="223.53"/>
  <line class="st0" x1="514.06" y1="117.94" x2="394.98" y2="223.53"/>
  <path class="st10" d="M343.81,331.61c-1.15,3.23-2.39,6.47-3.71,9.73-1.33,3.24-2.78,6.43-4.31,9.66-1.34.2-2.72.3-4.08.45,1.49-2.88,2.89-5.76,4.19-8.71,1.3-2.94,2.53-5.81,3.66-8.79-5.03.78-10.09,1.43-15.19,1.68-6.87.39-13.8.28-20.67-.66-1.71-.29-3.43-.48-5.12-.87l-2.55-.53-2.52-.65-1.26-.33-1.24-.39-2.49-.79c-1.62-.63-3.28-1.18-4.86-1.92-3.2-1.37-6.28-3.05-9.2-4.96-2.93-1.9-5.69-4.06-8.22-6.47-2.54-2.4-4.89-4.99-7-7.77-2.1-2.79-3.98-5.72-5.65-8.77-6.67-12.25-9.88-25.96-11.26-39.61-.68-6.84-.87-13.72-.68-20.58.22-6.87.74-13.68,1.85-20.55l3.12.56c-1.06,6.57-1.59,13.36-1.8,20.08-.19,6.74,0,13.49.67,20.18,1.34,13.35,4.5,26.67,10.89,38.4,1.6,2.92,3.39,5.72,5.39,8.37,2.01,2.64,4.24,5.1,6.64,7.38,2.4,2.28,5.01,4.33,7.79,6.13,2.76,1.82,5.68,3.41,8.73,4.71,1.5.71,3.08,1.23,4.63,1.83l2.38.76,1.19.38,1.21.31,2.42.63,2.45.5c1.62.38,3.29.56,4.93.83,6.62.9,13.36,1.02,20.06.64,4.97-.25,9.93-.88,14.86-1.64-1.97-2.4-3.87-4.95-5.68-7.44-1.82-2.48-3.55-5.05-5.19-7.63,1.07-.12,2.12-.18,3.2-.35,1.88,2.75,3.87,5.52,5.94,8.22,2.08,2.68,4.24,5.34,6.49,7.99Z"/>
  <path class="st10" d="M643.19,225.4c6.46,2.3,12.94,4.79,19.46,7.46.24,1.26.36,2.57.55,3.85-5.79-2.57-11.8-4.87-17.68-7.07.41,2.5.88,4.99,1.24,7.5l1.01,7.54c1.17,10,1.89,20.08,1.59,30.2-.31,10.1-1.65,20.28-4.93,29.99-1.72,4.82-3.9,9.52-6.83,13.8-2.94,4.26-6.62,8.07-10.96,10.98-4.33,2.91-9.22,4.96-14.29,6.06-2.54.56-5.12.86-7.71.98-1.3.06-2.59.06-3.89-.01-1.32-.06-2.56-.17-3.96-.4l.61-3.11c2.23.36,4.74.45,7.12.36,2.41-.11,4.81-.39,7.17-.91,4.71-1.02,9.2-2.92,13.18-5.59,3.99-2.67,7.39-6.18,10.13-10.16,2.74-3.99,4.8-8.44,6.44-13.03,3.13-9.28,4.45-19.17,4.75-29.05.29-9.9-.41-19.84-1.57-29.72l-.99-7.45c-.36-2.48-.82-4.95-1.23-7.42-4.87,4.01-9.65,7.89-14.71,11.57-.17-1.13-.27-2.26-.48-3.4,5.36-4.13,10.69-8.45,15.99-12.95Z"/>
</svg>