<?xml version="1.0" encoding="UTF-8"?>
<svg id="Layer_1" xmlns="http://www.w3.org/2000/svg" version="1.1" viewBox="0 0 900 235">
  <!-- Generator: Adobe Illustrator 29.2.1, SVG Export Plug-In . SVG Version: 2.1.0 Build 116)  -->
  <defs>
    <style>
      .st0, .st1, .st2 {
        stroke-width: 3px;
      }

      .st0, .st1, .st2, .st3, .st4 {
        stroke-miterlimit: 10;
      }

      .st0, .st3 {
        stroke: #000;
      }

      .st5, .st2, .st3, .st4, .st6 {
        fill: #ffd600;
      }

      .st5, .st7 {
        isolation: isolate;
      }

      .st5, .st8, .st9, .st10, .st6 {
        font-family: Impact, Impact;
      }

      .st5, .st8, .st6 {
        font-size: 21px;
      }

      .st1 {
        fill: none;
        stroke: #fbb03b;
      }

      .st2, .st4 {
        stroke: #ffd600;
      }

      .st8 {
        fill: #ff2c2c;
      }

      .st9 {
        font-size: 13.55px;
      }

      .st10 {
        font-size: 17.78px;
      }

      .st11 {
        fill: #fbb03b;
      }
    </style>
  </defs>
  <rect class="st3" x="24.98" y="103.48" width="213.9" height="82.15" rx="19.23" ry="19.23"/>
  <text class="st10" transform="translate(57.48 151.59)"><tspan x="0" y="0">Data</tspan></text>
  <text class="st9" transform="translate(141.02 141.79)"><tspan x="0" y="0">Address of the </tspan><tspan x="12.44" y="16.25">next node</tspan></text>
  <line class="st0" x1="120.66" y1="103.48" x2="120.66" y2="185.64"/>
  <rect class="st3" x="338.45" y="103.48" width="213.9" height="82.15" rx="19.23" ry="19.23"/>
  <text class="st10" transform="translate(370.95 151.59)"><tspan x="0" y="0">Data</tspan></text>
  <text class="st9" transform="translate(454.49 141.79)"><tspan x="0" y="0">Address of the </tspan><tspan x="12.44" y="16.25">next node</tspan></text>
  <line class="st0" x1="434.13" y1="103.48" x2="434.13" y2="185.64"/>
  <rect class="st3" x="663.44" y="103.48" width="213.9" height="82.15" rx="19.23" ry="19.23"/>
  <text class="st10" transform="translate(695.94 151.59)"><tspan x="0" y="0">Data</tspan></text>
  <text class="st9" transform="translate(779.49 141.79)"><tspan x="0" y="0">Address of the </tspan><tspan x="12.44" y="16.25">next node</tspan></text>
  <line class="st0" x1="759.12" y1="103.48" x2="759.12" y2="185.64"/>
  <g>
    <line class="st1" x1="259.45" y1="144.57" x2="321.87" y2="144.57"/>
    <polygon class="st11" points="311.93 156.83 309.89 154.64 320.72 144.57 309.89 134.5 311.93 132.3 325.13 144.57 311.93 156.83"/>
  </g>
  <g>
    <line class="st1" x1="575.05" y1="144.57" x2="637.47" y2="144.57"/>
    <polygon class="st11" points="627.53 156.83 625.49 154.64 636.32 144.57 625.49 134.5 627.53 132.3 640.73 144.57 627.53 156.83"/>
  </g>
  <text class="st6" transform="translate(371.61 54.99)"><tspan x="0" y="0">SINGLY LINKED LIST</tspan></text>
  <g>
    <line class="st2" x1="817.73" y1="66.32" x2="817.73" y2="95.99"/>
    <polygon class="st4" points="817.73 64.77 830 71.04 827.8 72.01 817.73 66.86 807.66 72.01 805.47 71.04 817.73 64.77"/>
  </g>
  <g class="st7">
    <text class="st5" transform="translate(800.49 54.99)"><tspan x="0" y="0">NULL</tspan></text>
  </g>
  <text class="st8" transform="translate(104.09 210.67)"><tspan x="0" y="0">HEAD</tspan></text>
</svg>