<?xml version="1.0" encoding="UTF-8"?>
<svg id="Layer_1" xmlns="http://www.w3.org/2000/svg" version="1.1" viewBox="0 0 900 470">
  <!-- Generator: Adobe Illustrator 29.2.1, SVG Export Plug-In . SVG Version: 2.1.0 Build 116)  -->
  <defs>
    <style>
      .st0 {
        font-size: 30.13px;
      }

      .st0, .st1, .st2 {
        isolation: isolate;
      }

      .st0, .st2, .st3 {
        font-family: Impact, Impact;
      }

      .st2 {
        font-size: 17.58px;
      }

      .st2, .st4, .st5 {
        fill: #ffd600;
      }

      .st3 {
        fill: #ff2c2c;
        font-size: 21px;
      }

      .st4 {
        stroke: #000;
        stroke-miterlimit: 10;
      }

      .st6 {
        fill: none;
        stroke: #ffd600;
        stroke-miterlimit: 3;
        stroke-width: 3px;
      }
    </style>
  </defs>
  <rect class="st4" x="222.5" y="136.65" width="81.22" height="81.22" rx="19.23" ry="19.23"/>
  <rect class="st4" x="302.57" y="136.65" width="81.22" height="81.22" rx="19.23" ry="19.23"/>
  <rect class="st4" x="384.94" y="136.65" width="81.22" height="81.22" rx="19.23" ry="19.23"/>
  <rect class="st4" x="466.17" y="136.65" width="81.22" height="81.22" rx="19.23" ry="19.23"/>
  <rect class="st4" x="547.39" y="136.65" width="81.22" height="81.22" rx="19.23" ry="19.23"/>
  <g class="st1">
    <text class="st0" transform="translate(254.35 187.94)"><tspan x="0" y="0">H</tspan></text>
  </g>
  <g class="st1">
    <text class="st0" transform="translate(336.32 187.94) scale(.84 1)"><tspan x="0" y="0">e</tspan></text>
  </g>
  <g class="st1">
    <text class="st0" transform="translate(419.38 187.94) scale(.89 1)"><tspan x="0" y="0">l</tspan></text>
  </g>
  <g class="st1">
    <text class="st0" transform="translate(505.9 187.58)"><tspan x="0" y="0">l</tspan></text>
  </g>
  <g class="st1">
    <text class="st0" transform="translate(579.25 187.58)"><tspan x="0" y="0">o</tspan></text>
  </g>
  <g class="st1">
    <text class="st2" transform="translate(257.74 125.99)"><tspan x="0" y="0">0</tspan></text>
  </g>
  <g class="st1">
    <text class="st2" transform="translate(338.42 125.99)"><tspan x="0" y="0">1</tspan></text>
  </g>
  <g class="st1">
    <text class="st2" transform="translate(416.68 125.99)"><tspan x="0" y="0">2</tspan></text>
  </g>
  <g class="st1">
    <text class="st2" transform="translate(498.22 125.99)"><tspan x="0" y="0">3</tspan></text>
  </g>
  <g class="st1">
    <text class="st2" transform="translate(579.15 125.99)"><tspan x="0" y="0">4</tspan></text>
  </g>
  <g class="st1">
    <text class="st2" transform="translate(245.82 242.58)"><tspan x="0" y="0">0X01</tspan></text>
  </g>
  <g class="st1">
    <text class="st2" transform="translate(326.26 242.58)"><tspan x="0" y="0">0X02</tspan></text>
  </g>
  <g class="st1">
    <text class="st2" transform="translate(406.49 242.84)"><tspan x="0" y="0">0X03</tspan></text>
  </g>
  <g class="st1">
    <text class="st2" transform="translate(488.73 242.84)"><tspan x="0" y="0">0X04</tspan></text>
  </g>
  <g class="st1">
    <text class="st2" transform="translate(569.63 242.58)"><tspan x="0" y="0">0X05</tspan></text>
  </g>
  <rect class="st4" x="628.62" y="136.93" width="81.22" height="81.22" rx="19.23" ry="19.23"/>
  <g class="st1">
    <text class="st0" transform="translate(651.47 187.58)"><tspan x="0" y="0">\0</tspan></text>
  </g>
  <g class="st1">
    <text class="st2" transform="translate(660.37 126.27)"><tspan x="0" y="0">5</tspan></text>
  </g>
  <g class="st1">
    <text class="st2" transform="translate(650.86 242.86)"><tspan x="0" y="0">0X06</tspan></text>
  </g>
  <rect class="st4" x="222.5" y="328.82" width="81.22" height="81.22" rx="19.23" ry="19.23"/>
  <rect class="st4" x="302.57" y="328.82" width="81.22" height="81.22" rx="19.23" ry="19.23"/>
  <rect class="st4" x="384.94" y="328.82" width="81.22" height="81.22" rx="19.23" ry="19.23"/>
  <rect class="st4" x="466.17" y="328.82" width="81.22" height="81.22" rx="19.23" ry="19.23"/>
  <rect class="st4" x="547.39" y="328.82" width="81.22" height="81.22" rx="19.23" ry="19.23"/>
  <g class="st1">
    <text class="st0" transform="translate(250.05 381.92)"><tspan x="0" y="0">72</tspan></text>
  </g>
  <g class="st1">
    <text class="st0" transform="translate(326.88 381.01) scale(.84 1)"><tspan x="0" y="0">101</tspan></text>
  </g>
  <g class="st1">
    <text class="st0" transform="translate(407.1 381.47) scale(.89 1)"><tspan x="0" y="0">108</tspan></text>
  </g>
  <g class="st1">
    <text class="st0" transform="translate(484.27 381.47)"><tspan x="0" y="0">108</tspan></text>
  </g>
  <g class="st1">
    <text class="st0" transform="translate(570.25 381.92)"><tspan x="0" y="0">111</tspan></text>
  </g>
  <g class="st1">
    <text class="st2" transform="translate(257.74 318.16)"><tspan x="0" y="0">0</tspan></text>
  </g>
  <g class="st1">
    <text class="st2" transform="translate(338.42 318.16)"><tspan x="0" y="0">1</tspan></text>
  </g>
  <g class="st1">
    <text class="st2" transform="translate(416.68 318.16)"><tspan x="0" y="0">2</tspan></text>
  </g>
  <g class="st1">
    <text class="st2" transform="translate(498.22 318.16)"><tspan x="0" y="0">3</tspan></text>
  </g>
  <g class="st1">
    <text class="st2" transform="translate(579.15 318.16)"><tspan x="0" y="0">4</tspan></text>
  </g>
  <g class="st1">
    <text class="st2" transform="translate(245.82 434.75)"><tspan x="0" y="0">0X01</tspan></text>
  </g>
  <g class="st1">
    <text class="st2" transform="translate(326.26 434.75)"><tspan x="0" y="0">0X02</tspan></text>
  </g>
  <g class="st1">
    <text class="st2" transform="translate(406.49 435.01)"><tspan x="0" y="0">0X03</tspan></text>
  </g>
  <g class="st1">
    <text class="st2" transform="translate(488.73 435.01)"><tspan x="0" y="0">0X04</tspan></text>
  </g>
  <g class="st1">
    <text class="st2" transform="translate(569.63 434.75)"><tspan x="0" y="0">0X05</tspan></text>
  </g>
  <rect class="st4" x="628.62" y="329.1" width="81.22" height="81.22" rx="19.23" ry="19.23"/>
  <g class="st1">
    <text class="st0" transform="translate(651.47 379.75)"><tspan x="0" y="0">\0</tspan></text>
  </g>
  <g class="st1">
    <text class="st2" transform="translate(660.37 318.44)"><tspan x="0" y="0">5</tspan></text>
  </g>
  <g class="st1">
    <text class="st2" transform="translate(650.86 435.03)"><tspan x="0" y="0">0X06</tspan></text>
  </g>
  <g>
    <path class="st6" d="M726.76,40.68s100.87,104.62,3.16,130.34"/>
    <polygon class="st5" points="736.06 156.37 738.63 157.92 730.99 170.59 744.19 177.28 742.83 179.96 726.76 171.81 736.06 156.37"/>
  </g>
  <text class="st3" transform="translate(587.83 30.7)"><tspan x="0" y="0">\0 represents the </tspan><tspan x="0" y="25.2">end of a string</tspan></text>
  <g>
    <path class="st6" d="M155.79,261.39s12.91,82.35,57.87,86.16"/>
    <polygon class="st5" points="202.03 357.84 200.34 355.36 212.56 347.03 203.36 335.44 205.71 333.58 216.91 347.69 202.03 357.84"/>
  </g>
  <text class="st3" transform="translate(51.94 245.02)"><tspan x="0" y="0">ASCII code of the </tspan><tspan x="0" y="25.2">charcter</tspan></text>
  <g>
    <path class="st5" d="M60.13,346.85l2.47,16.6h-4.41l-.23-2.98h-1.54l-.26,2.98h-4.46l2.2-16.6h6.24ZM57.85,357.52c-.22-1.88-.44-4.2-.66-6.97-.44,3.18-.72,5.5-.83,6.97h1.49Z"/>
    <path class="st5" d="M72.48,351.88h-4.01v-1.23c0-.57-.05-.94-.15-1.1s-.27-.24-.51-.24c-.26,0-.46.11-.59.32-.13.21-.2.53-.2.96,0,.55.07.97.22,1.25.14.28.55.62,1.22,1.01,1.92,1.14,3.13,2.08,3.63,2.81.5.73.75,1.91.75,3.54,0,1.18-.14,2.05-.42,2.61-.28.56-.81,1.03-1.6,1.41-.79.38-1.72.57-2.77.57-1.16,0-2.14-.22-2.96-.66-.82-.44-1.35-1-1.6-1.67-.25-.68-.38-1.64-.38-2.88v-1.09h4.01v2.02c0,.62.06,1.02.17,1.2.11.18.31.27.6.27s.5-.11.64-.34c.14-.23.21-.56.21-1.01,0-.98-.13-1.62-.4-1.92-.27-.3-.95-.8-2.02-1.51-1.07-.71-1.78-1.23-2.13-1.55s-.64-.77-.87-1.33-.34-1.29-.34-2.17c0-1.27.16-2.2.49-2.79s.85-1.05,1.57-1.38c.72-.33,1.6-.5,2.62-.5,1.12,0,2.08.18,2.87.54.79.36,1.31.82,1.57,1.37.26.55.38,1.49.38,2.8v.66Z"/>
    <path class="st5" d="M84.27,354.08h-4.32v-2.89c0-.84-.05-1.36-.14-1.57-.09-.21-.3-.31-.61-.31-.36,0-.58.13-.68.38s-.14.8-.14,1.64v7.71c0,.81.05,1.33.14,1.58s.31.37.65.37.53-.12.63-.37c.1-.25.15-.83.15-1.74v-2.09h4.32v.65c0,1.72-.12,2.94-.36,3.66-.24.72-.78,1.35-1.61,1.89-.83.54-1.85.81-3.07.81s-2.31-.23-3.13-.69c-.82-.46-1.36-1.09-1.63-1.9-.27-.81-.4-2.03-.4-3.66v-4.85c0-1.2.04-2.09.12-2.69.08-.6.33-1.17.73-1.73.41-.55.97-.99,1.69-1.31.72-.32,1.55-.48,2.49-.48,1.27,0,2.32.25,3.15.74.83.49,1.37,1.1,1.63,1.84.26.73.39,1.88.39,3.42v1.58Z"/>
    <path class="st5" d="M90.14,346.85v16.6h-4.32v-16.6h4.32Z"/>
    <path class="st5" d="M96.19,346.85v16.6h-4.32v-16.6h4.32Z"/>
    <path class="st5" d="M111.7,354.08h-4.32v-2.89c0-.84-.05-1.36-.14-1.57-.09-.21-.3-.31-.61-.31-.36,0-.58.13-.68.38s-.14.8-.14,1.64v7.71c0,.81.05,1.33.14,1.58s.31.37.65.37.53-.12.63-.37c.1-.25.15-.83.15-1.74v-2.09h4.32v.65c0,1.72-.12,2.94-.36,3.66-.24.72-.78,1.35-1.61,1.89-.83.54-1.85.81-3.07.81s-2.31-.23-3.13-.69c-.82-.46-1.36-1.09-1.63-1.9-.27-.81-.4-2.03-.4-3.66v-4.85c0-1.2.04-2.09.12-2.69.08-.6.33-1.17.73-1.73.41-.55.97-.99,1.69-1.31.72-.32,1.55-.48,2.49-.48,1.27,0,2.32.25,3.15.74.83.49,1.37,1.1,1.63,1.84.26.73.39,1.88.39,3.42v1.58Z"/>
    <path class="st5" d="M122.5,354.62v3.33c0,1.22-.06,2.12-.18,2.69-.12.57-.39,1.1-.79,1.6-.4.5-.92.86-1.55,1.1-.63.24-1.36.35-2.18.35-.92,0-1.69-.1-2.33-.3-.64-.2-1.13-.51-1.48-.91-.35-.41-.6-.9-.75-1.48-.15-.58-.23-1.44-.23-2.6v-3.49c0-1.26.14-2.25.41-2.96s.77-1.28,1.48-1.71,1.62-.65,2.73-.65c.93,0,1.73.14,2.39.42.67.28,1.18.64,1.54,1.08s.61.9.74,1.37c.13.47.2,1.19.2,2.15ZM118.36,353.6c0-.7-.04-1.14-.11-1.32-.08-.18-.24-.27-.48-.27s-.41.09-.49.27c-.08.18-.12.62-.12,1.32v6.14c0,.64.04,1.06.12,1.26.08.2.24.29.48.29s.41-.09.49-.27.12-.56.12-1.15v-6.28Z"/>
    <path class="st5" d="M133.29,346.85v16.6h-4.14v-.99c-.4.41-.81.72-1.25.92-.44.21-.9.31-1.37.31-.64,0-1.2-.17-1.67-.51-.47-.34-.77-.73-.91-1.17-.13-.44-.2-1.17-.2-2.17v-6.37c0-1.05.07-1.79.2-2.23.13-.44.44-.82.92-1.15.48-.33,1.05-.5,1.71-.5.51,0,.98.09,1.41.28.43.18.81.46,1.16.83v-3.86h4.14ZM129.15,353.27c0-.5-.04-.83-.13-1.01-.09-.17-.25-.26-.51-.26s-.41.08-.5.23c-.09.15-.13.5-.13,1.03v6.66c0,.55.04.92.12,1.09.08.17.24.26.47.26.27,0,.44-.1.53-.29.09-.19.13-.67.13-1.43v-6.29Z"/>
    <path class="st5" d="M144.16,356.89h-5.36v2.94c0,.62.04,1.01.13,1.19s.26.27.51.27c.31,0,.52-.12.63-.35.11-.24.16-.69.16-1.37v-1.79h3.93v1c0,.84-.05,1.49-.16,1.94-.11.45-.35.93-.74,1.45s-.88.9-1.48,1.15c-.6.26-1.35.38-2.25.38s-1.65-.13-2.32-.38c-.67-.25-1.19-.6-1.56-1.04-.37-.44-.63-.93-.77-1.46-.14-.53-.22-1.3-.22-2.31v-3.97c0-1.19.16-2.13.48-2.82.32-.69.85-1.21,1.58-1.58.73-.37,1.57-.55,2.52-.55,1.16,0,2.12.22,2.88.66.75.44,1.28,1.03,1.59,1.75.3.73.46,1.75.46,3.07v1.8ZM140,354.67v-.99c0-.7-.04-1.16-.11-1.36s-.23-.31-.46-.31c-.29,0-.46.09-.53.26-.07.17-.1.64-.1,1.41v.99h1.21Z"/>
    <path class="st5" d="M148.64,352.64v3.37h-3.13v-3.37h3.13ZM148.64,360.07v3.38h-3.13v-3.38h3.13Z"/>
    <path class="st5" d="M56.25,380.32h-3.89v-.91c0-1.05.12-1.86.36-2.44.24-.57.73-1.07,1.46-1.51.73-.44,1.68-.66,2.85-.66,1.4,0,2.46.25,3.17.74.71.5,1.14,1.1,1.28,1.83.14.72.22,2.21.22,4.46v6.83h-4.03v-1.21c-.25.49-.58.85-.98,1.09-.4.24-.88.36-1.43.36-.72,0-1.39-.2-1.99-.61-.6-.41-.91-1.3-.91-2.67v-1.12c0-1.02.16-1.71.48-2.08s1.12-.8,2.39-1.29c1.36-.53,2.09-.89,2.18-1.08.1-.18.14-.56.14-1.13,0-.71-.05-1.17-.16-1.39-.11-.22-.28-.32-.53-.32-.28,0-.45.09-.52.27-.07.18-.1.65-.1,1.41v1.43ZM57.56,382.18c-.66.49-1.05.89-1.15,1.22s-.16.8-.16,1.42c0,.7.05,1.16.14,1.36.09.21.28.31.55.31s.43-.08.51-.24c.08-.16.12-.58.12-1.27v-2.8Z"/>
    <path class="st5" d="M68.21,380.42v2.86h-5.44v-2.86h5.44Z"/>
    <path class="st5" d="M75.76,375.04v3.02l-3.06,7.86h3.06v2.73h-7.06v-2.85l3.12-8.03h-2.8v-2.73h6.75Z"/>
    <path class="st5" d="M83.52,377.84v3.37h-3.13v-3.37h3.13ZM83.52,385.27v3.38h-3.13v-3.38h3.13Z"/>
    <path class="st5" d="M88.34,384.24h4.14c0,.77.01,1.26.03,1.46.02.2.1.37.25.51.15.14.35.21.6.21.21,0,.39-.06.52-.19s.21-.3.23-.5c.02-.21.03-.62.03-1.24v-2.64c-.21.44-.51.78-.92,1-.41.22-.92.33-1.53.33-.76,0-1.43-.21-2.01-.62s-.95-.9-1.11-1.48-.24-1.35-.24-2.33v-1.32c0-1.16.05-2.03.14-2.59.09-.57.33-1.09.71-1.57.38-.48.91-.86,1.59-1.12.68-.27,1.46-.4,2.36-.4,1.11,0,2.02.15,2.73.46.71.31,1.26.75,1.65,1.33.39.58.62,1.18.68,1.82s.09,1.87.09,3.69v2.31c0,1.98-.03,3.3-.08,3.96-.05.67-.29,1.3-.71,1.89-.42.59-.99,1.04-1.71,1.34-.72.3-1.55.45-2.49.45-1.17,0-2.12-.19-2.87-.56-.74-.38-1.28-.91-1.6-1.59-.33-.68-.49-1.54-.49-2.58ZM92.48,379.06c0,.7.09,1.13.27,1.29s.37.25.56.25c.29,0,.5-.1.63-.31.13-.21.2-.62.2-1.23v-3c0-.73-.06-1.21-.19-1.44-.13-.23-.34-.34-.63-.34-.18,0-.36.09-.55.26-.19.17-.29.64-.29,1.41v3.11Z"/>
    <path class="st5" d="M107.01,372.05v3.62l-2.65,12.98h-4.12l2.95-13.62h-4.1v-2.98h7.92Z"/>
    <path class="st5" d="M116.71,380.42v2.86h-5.44v-2.86h5.44Z"/>
    <path class="st5" d="M127.91,372.05v16.6h-4.14v-8.9c0-1.29-.03-2.06-.09-2.32s-.23-.46-.51-.59c-.28-.13-.89-.2-1.85-.2h-.41v-1.93c2-.43,3.52-1.32,4.56-2.66h2.44Z"/>
    <path class="st5" d="M138.45,385.82v2.83h-9.12v-2.37c2.7-4.42,4.31-7.15,4.82-8.2.51-1.05.76-1.87.76-2.46,0-.45-.08-.79-.23-1.01-.15-.22-.39-.33-.7-.33s-.55.12-.7.37-.23.73-.23,1.47v1.58h-3.71v-.61c0-.93.05-1.66.14-2.2.1-.54.33-1.06.71-1.58s.86-.91,1.47-1.18c.6-.27,1.32-.4,2.16-.4,1.65,0,2.89.41,3.74,1.23.84.82,1.27,1.85,1.27,3.1,0,.95-.24,1.96-.71,3.01s-1.88,3.31-4.2,6.75h4.54Z"/>
    <path class="st5" d="M148.99,385.82v2.83h-9.12v-2.37c2.7-4.42,4.31-7.15,4.82-8.2.51-1.05.76-1.87.76-2.46,0-.45-.08-.79-.23-1.01-.15-.22-.39-.33-.7-.33s-.55.12-.7.37-.23.73-.23,1.47v1.58h-3.71v-.61c0-.93.05-1.66.14-2.2.1-.54.33-1.06.71-1.58s.86-.91,1.47-1.18c.6-.27,1.32-.4,2.16-.4,1.65,0,2.89.41,3.74,1.23.84.82,1.27,1.85,1.27,3.1,0,.95-.24,1.96-.71,3.01s-1.88,3.31-4.2,6.75h4.54Z"/>
    <path class="st5" d="M60.13,397.25l2.47,16.6h-4.41l-.23-2.98h-1.54l-.26,2.98h-4.46l2.2-16.6h6.24ZM57.85,407.92c-.22-1.88-.44-4.2-.66-6.97-.44,3.18-.72,5.5-.83,6.97h1.49Z"/>
    <path class="st5" d="M68.29,405.62v2.86h-5.44v-2.86h5.44Z"/>
    <path class="st5" d="M76.74,397.25v3.32l-3.21,9.96h3.21v3.32h-7.96v-2.41l3.32-10.87h-2.93v-3.32h7.57Z"/>
    <path class="st5" d="M80.86,403.04v3.37h-3.13v-3.37h3.13ZM80.86,410.47v3.38h-3.13v-3.38h3.13Z"/>
    <path class="st5" d="M95.63,401.66h-4.14c0-.77,0-1.26-.03-1.46-.02-.2-.1-.37-.25-.51-.15-.14-.35-.21-.6-.21-.21,0-.39.06-.52.19s-.22.3-.24.5-.03.62-.03,1.24v2.65c.21-.44.52-.78.93-1,.41-.22.92-.33,1.52-.33.76,0,1.43.21,2.01.62s.95.9,1.11,1.48.24,1.35.24,2.33v1.32c0,1.16-.04,2.03-.13,2.59-.09.57-.33,1.09-.71,1.57-.39.48-.92.86-1.59,1.12s-1.46.4-2.35.4c-1.11,0-2.03-.15-2.74-.46s-1.26-.75-1.65-1.33c-.39-.58-.61-1.18-.68-1.82-.07-.64-.1-1.87-.1-3.7v-2.3c0-1.98.03-3.3.09-3.96.06-.67.3-1.3.71-1.89.42-.6.99-1.04,1.71-1.34.72-.3,1.55-.45,2.5-.45,1.16,0,2.12.19,2.86.56s1.28.91,1.6,1.59.48,1.54.48,2.58ZM91.48,406.84c0-.59-.06-.99-.19-1.21s-.34-.33-.64-.33-.5.1-.63.31c-.13.21-.2.62-.2,1.23v3c0,.73.06,1.21.19,1.44.13.23.34.34.63.34.18,0,.36-.09.55-.26.19-.17.29-.64.29-1.41v-3.11Z"/>
    <path class="st5" d="M106.1,397.25v2.66h-5.14v2.82c.64-.76,1.47-1.14,2.48-1.14,1.14,0,2,.32,2.59.96.58.64.88,1.87.88,3.69v2.37c0,1.18-.06,2.04-.17,2.59-.11.55-.35,1.06-.72,1.53-.37.47-.88.83-1.54,1.08-.66.25-1.46.38-2.42.38-1.07,0-2.01-.19-2.82-.56-.81-.37-1.39-.93-1.73-1.67s-.51-1.88-.51-3.42v-.9h4.14v1.04c0,1.07.04,1.84.11,2.29s.33.68.78.68c.21,0,.37-.06.5-.19.13-.13.19-.27.21-.42,0-.15.02-.8.04-1.96v-3.29c0-.62-.06-1.05-.19-1.27s-.35-.34-.65-.34c-.19,0-.35.06-.48.17s-.21.24-.25.37c-.04.13-.06.44-.06.93h-4.1l.17-8.37h8.89Z"/>
    <path class="st5" d="M113.4,405.62v2.86h-5.44v-2.86h5.44Z"/>
    <path class="st5" d="M114.5,409.44h4.14c0,.77.01,1.26.03,1.46.02.2.1.37.25.51.15.14.35.21.6.21.21,0,.39-.06.52-.19s.21-.3.23-.5c.02-.21.03-.62.03-1.24v-2.64c-.21.44-.51.78-.92,1-.41.22-.92.33-1.53.33-.76,0-1.43-.21-2.01-.62s-.95-.9-1.11-1.48-.24-1.35-.24-2.33v-1.32c0-1.16.05-2.03.14-2.59.09-.57.33-1.09.71-1.57.38-.48.91-.86,1.59-1.12.68-.27,1.46-.4,2.36-.4,1.11,0,2.02.15,2.73.46.71.31,1.26.75,1.65,1.33.39.58.62,1.18.68,1.82s.09,1.87.09,3.69v2.31c0,1.98-.03,3.3-.08,3.96-.05.67-.29,1.3-.71,1.89-.42.59-.99,1.04-1.71,1.34-.72.3-1.55.45-2.49.45-1.17,0-2.12-.19-2.87-.56-.74-.38-1.28-.91-1.6-1.59-.33-.68-.49-1.54-.49-2.58ZM118.65,404.26c0,.7.09,1.13.27,1.29s.37.25.56.25c.29,0,.5-.1.63-.31.13-.21.2-.62.2-1.23v-3c0-.73-.06-1.21-.19-1.44-.13-.23-.34-.34-.63-.34-.18,0-.36.09-.55.26-.19.17-.29.64-.29,1.41v3.11Z"/>
    <path class="st5" d="M135.65,402.87v5.54c0,1.26-.07,2.17-.21,2.75s-.42,1.11-.85,1.61-.95.86-1.56,1.08c-.61.22-1.29.33-2.04.33-.99,0-1.81-.12-2.47-.34-.66-.23-1.18-.59-1.57-1.07-.39-.48-.67-1-.83-1.53-.16-.54-.25-1.39-.25-2.56v-5.79c0-1.52.13-2.67.39-3.42.26-.76.79-1.37,1.57-1.83.78-.46,1.73-.69,2.85-.69.91,0,1.72.16,2.44.48.72.32,1.25.71,1.61,1.16s.6.97.72,1.55.19,1.49.19,2.75ZM131.5,401.47c0-.88-.04-1.43-.13-1.66-.09-.22-.29-.33-.6-.33s-.51.12-.61.35c-.1.24-.15.78-.15,1.63v8.1c0,.96.05,1.54.14,1.74.09.2.29.3.6.3s.51-.12.6-.35.14-.75.14-1.57v-8.22Z"/>
  </g>
</svg>